<?xml version="1.0" encoding="utf-8"?>
<!-- Generator: Adobe Illustrator 23.0.1, SVG Export Plug-In . SVG Version: 6.00 Build 0)  -->
<svg version="1.1" id="Layer_1" xmlns="http://www.w3.org/2000/svg" xmlns:xlink="http://www.w3.org/1999/xlink" x="0px" y="0px"
	 viewBox="0 0 1920 1080" style="enable-background:new 0 0 1920 1080;" xml:space="preserve">
<style type="text/css">
	.st0{opacity:0.6;}
	.st1{fill:#003366;}
</style>
<g class="st0">
	<path class="st1" d="M1113.1,583.6c0.2,0,0.4-0.2,0.4-0.4s-0.2-0.4-0.4-0.4c-8-1.4-12.6-2.6-15.5-5.5s-4.1-7.5-5.5-15.5
		c0-0.2-0.2-0.4-0.4-0.4c-0.2,0-0.4,0.1-0.4,0.4c-1.4,8-2.6,12.6-5.4,15.5s-7.5,4.1-15.5,5.5c-0.2,0-0.4,0.2-0.4,0.4
		s0.1,0.4,0.3,0.4c15.5,2.9,18.2,4.6,20.9,20.9c0,0.2,0.2,0.4,0.4,0.4c0.2,0,0.4-0.2,0.4-0.4c1.4-8,2.6-12.6,5.5-15.5
		C1100.5,586.2,1105.1,584.9,1113.1,583.6z M1091.7,602c-2.6-13.8-5.9-16.2-18.9-18.8c13.6-2.5,16.4-5.3,18.9-18.8
		c2.5,13.5,5.3,16.3,18.8,18.8C1097,585.7,1094.2,588.5,1091.7,602z"/>
	<path class="st1" d="M1082.5,559.8c0.1,0.2,0.2,0.2,0.4,0.2c0.1,0,0.1,0,0.2,0c0.2-0.1,0.3-0.4,0.2-0.6l-2.4-4.6
		c-0.1-0.2-0.4-0.3-0.6-0.2s-0.3,0.4-0.2,0.6L1082.5,559.8z"/>
	<path class="st1" d="M1077.8,550.7c0.1,0.2,0.2,0.2,0.4,0.2c0.1,0,0.1,0,0.2,0c0.2-0.1,0.3-0.4,0.2-0.6l-2.1-4.1
		c-0.1-0.2-0.4-0.3-0.6-0.2s-0.3,0.4-0.2,0.6L1077.8,550.7z"/>
	<path class="st1" d="M1090.8,555.4c0.2,0,0.4-0.2,0.4-0.4v-23.7c0-0.2-0.2-0.4-0.4-0.4s-0.4,0.2-0.4,0.4v23.6
		C1090.3,555.2,1090.5,555.4,1090.8,555.4z"/>
	<path class="st1" d="M1098.2,560.6c0.1,0,0.1,0,0.2,0c0.2,0,0.3-0.1,0.4-0.2l7.1-12.8c0.1-0.2,0-0.5-0.2-0.6s-0.5,0-0.6,0.2
		L1098,560C1098,560.2,1098,560.5,1098.2,560.6z"/>
	<path class="st1" d="M1108.7,570.4c0.1,0.1,0.2,0.2,0.3,0.2s0.2,0,0.3-0.1l14.1-10.5c0.2-0.1,0.2-0.4,0.1-0.6
		c-0.1-0.2-0.4-0.2-0.6-0.1l-14.1,10.5C1108.6,569.9,1108.6,570.2,1108.7,570.4z"/>
	<path class="st1" d="M1115,577.8c0,0.2,0.2,0.3,0.4,0.3h0.1l17.8-3.7c0.2,0,0.4-0.3,0.3-0.5s-0.3-0.4-0.5-0.3l-17.8,3.7
		C1115.1,577.3,1114.9,577.6,1115,577.8z"/>
	<path class="st1" d="M1120.4,586.9c0,0.2,0.2,0.4,0.4,0.4l13.4,0.6l0,0c0.2,0,0.4-0.2,0.4-0.4s-0.2-0.4-0.4-0.4l-13.4-0.6
		C1120.6,586.5,1120.4,586.7,1120.4,586.9z"/>
	<path class="st1" d="M1122,605.5l-12.7-9.5c-0.2-0.1-0.5-0.1-0.6,0.1c-0.1,0.2-0.1,0.5,0.1,0.6l12.7,9.5c0.1,0.1,0.2,0.1,0.3,0.1
		s0.3-0.1,0.3-0.2C1122.3,605.9,1122.2,605.6,1122,605.5z"/>
	<path class="st1" d="M1103.1,602.1c-0.2-0.2-0.4-0.2-0.6-0.1c-0.2,0.2-0.2,0.4-0.1,0.6l16.6,20c0.1,0.1,0.2,0.2,0.3,0.2
		s0.2,0,0.3-0.1c0.2-0.1,0.2-0.4,0.1-0.6L1103.1,602.1z"/>
	<path class="st1" d="M1098.2,608c-0.1-0.2-0.4-0.3-0.6-0.2s-0.3,0.4-0.2,0.6l5,8.8c0.1,0.1,0.2,0.2,0.4,0.2c0.1,0,0.1,0,0.2-0.1
		c0.2-0.1,0.3-0.4,0.2-0.6L1098.2,608z"/>
	<path class="st1" d="M1090.3,611.5c-0.2,0-0.4,0.2-0.4,0.4v18.5c0,0.2,0.2,0.4,0.4,0.4c0.2,0,0.4-0.2,0.4-0.4v-18.5
		C1090.7,611.7,1090.5,611.5,1090.3,611.5z"/>
	<path class="st1" d="M1084.3,605.2c-0.2-0.1-0.5-0.1-0.6,0.1l-12.4,18.1c-0.1,0.2-0.1,0.5,0.1,0.6c0.1,0,0.2,0.1,0.2,0.1
		c0.1,0,0.3-0.1,0.3-0.2l12.4-18C1084.6,605.6,1084.5,605.3,1084.3,605.2z"/>
	<path class="st1" d="M1077.4,597.2c-0.1-0.2-0.4-0.2-0.6-0.1l-20.2,14.9c-0.2,0.1-0.2,0.4-0.1,0.6c0.1,0.1,0.2,0.2,0.3,0.2
		s0.2,0,0.3-0.1l20.2-14.9C1077.5,597.7,1077.5,597.4,1077.4,597.2z"/>
	<path class="st1" d="M1064.7,588c0-0.2-0.3-0.4-0.5-0.4l-11.4,1.9c-0.2,0-0.4,0.3-0.3,0.5c0,0.2,0.2,0.4,0.4,0.4h0.1l11.4-1.8
		C1064.6,588.5,1064.8,588.3,1064.7,588z"/>
	<path class="st1" d="M1066.9,578.1c0.2,0,0.3-0.1,0.4-0.3s0-0.5-0.3-0.5l-19.4-6.7c-0.2-0.1-0.5,0-0.5,0.3c-0.1,0.2,0,0.5,0.3,0.5
		L1066.9,578.1L1066.9,578.1z"/>
	<path class="st1" d="M1074.4,572.2c0.1,0.1,0.2,0.1,0.3,0.1s0.2,0,0.3-0.1c0.2-0.2,0.1-0.5,0-0.6l-10.6-9.3c-0.2-0.2-0.5-0.1-0.6,0
		c-0.2,0.2-0.1,0.5,0,0.6L1074.4,572.2z"/>
	<path class="st1" d="M1080.2,568c0.1,0.1,0.2,0.1,0.3,0.1s0.2,0,0.3-0.1c0.2-0.2,0.2-0.4,0-0.6l-15.9-18.5c-0.2-0.2-0.4-0.2-0.6,0
		s-0.2,0.4,0,0.6L1080.2,568z"/>
	<path class="st1" d="M1062.5,598.1l-5.2,2.4c-0.2,0.1-0.3,0.4-0.2,0.6c0.1,0.2,0.2,0.3,0.4,0.3c0.1,0,0.1,0,0.2,0l5.2-2.4
		c0.2-0.1,0.3-0.4,0.2-0.6C1063,598.1,1062.7,598,1062.5,598.1z"/>
	<path class="st1" d="M1067.5,596.2c0.1,0.2,0.2,0.3,0.4,0.3c0.1,0,0.1,0,0.2,0l3.3-1.5c0.2-0.1,0.3-0.3,0.2-0.6
		c-0.1-0.2-0.3-0.3-0.6-0.2l-3.3,1.5C1067.5,595.7,1067.4,596,1067.5,596.2z"/>
	<path class="st1" d="M1134.4,599.7l-3.8-1.8c-0.2-0.1-0.5,0-0.6,0.2s0,0.5,0.2,0.6l3.8,1.8c0.1,0,0.1,0,0.2,0
		c0.2,0,0.3-0.1,0.4-0.2C1134.7,600.1,1134.6,599.8,1134.4,599.7z"/>
	<path class="st1" d="M1124.2,594.9l-7.6-3.6c-0.2-0.1-0.5,0-0.6,0.2s0,0.5,0.2,0.6l7.6,3.6c0.1,0,0.1,0,0.2,0
		c0.2,0,0.3-0.1,0.4-0.2C1124.5,595.2,1124.4,595,1124.2,594.9z"/>
	<path class="st1" d="M1117.2,548.8c0.1,0,0.3,0,0.3-0.2l2.1-2.6c0.2-0.2,0.1-0.5-0.1-0.6c-0.2-0.2-0.5-0.1-0.6,0.1l-2.1,2.6
		c-0.1,0.2-0.1,0.5,0.1,0.6C1117.1,548.8,1117.2,548.8,1117.2,548.8z"/>
	<path class="st1" d="M1102.5,566.3c0.1,0.1,0.2,0.1,0.3,0.1s0.3,0,0.3-0.2l11.1-13.6c0.1-0.2,0.1-0.5-0.1-0.6s-0.4-0.1-0.6,0.1
		l-11.1,13.6C1102.3,565.9,1102.3,566.2,1102.5,566.3z"/>
</g>
<g class="st0">
	<path class="st1" d="M1237.1,334.6c0.2,0,0.4-0.2,0.4-0.4c0-0.2-0.2-0.4-0.4-0.4c-8-1.4-12.6-2.6-15.5-5.5s-4.1-7.5-5.5-15.5
		c0-0.2-0.2-0.4-0.4-0.4c-0.2,0-0.4,0.1-0.4,0.4c-1.4,8-2.6,12.6-5.4,15.5c-2.9,2.9-7.5,4.1-15.5,5.5c-0.2,0-0.4,0.2-0.4,0.4
		c0,0.2,0.1,0.4,0.3,0.4c15.5,2.9,18.2,4.6,20.9,20.9c0,0.2,0.2,0.4,0.4,0.4c0.2,0,0.4-0.2,0.4-0.4c1.4-8,2.6-12.6,5.5-15.5
		C1224.5,337.2,1229.1,335.9,1237.1,334.6z M1215.7,353c-2.6-13.8-5.9-16.2-18.9-18.8c13.6-2.5,16.4-5.3,18.9-18.9
		c2.5,13.5,5.3,16.3,18.8,18.8C1221,336.7,1218.2,339.5,1215.7,353z"/>
	<path class="st1" d="M1206.5,310.8c0.1,0.1,0.2,0.2,0.4,0.2c0.1,0,0.1,0,0.2,0c0.2-0.1,0.3-0.4,0.2-0.6l-2.4-4.6
		c-0.1-0.2-0.4-0.3-0.6-0.2c-0.2,0.1-0.3,0.4-0.2,0.6L1206.5,310.8z"/>
	<path class="st1" d="M1201.8,301.7c0.1,0.1,0.2,0.2,0.4,0.2c0.1,0,0.1,0,0.2-0.1c0.2-0.1,0.3-0.4,0.2-0.6l-2.1-4.1
		c-0.1-0.2-0.4-0.3-0.6-0.2c-0.2,0.1-0.3,0.4-0.2,0.6L1201.8,301.7z"/>
	<path class="st1" d="M1214.8,306.4c0.2,0,0.4-0.2,0.4-0.4v-23.7c0-0.2-0.2-0.4-0.4-0.4s-0.4,0.2-0.4,0.4v23.6
		C1214.3,306.2,1214.5,306.4,1214.8,306.4z"/>
	<path class="st1" d="M1222.2,311.6c0.1,0,0.1,0.1,0.2,0.1c0.2,0,0.3-0.1,0.4-0.2l7.1-12.8c0.1-0.2,0-0.5-0.2-0.6s-0.5,0-0.6,0.2
		l-7.1,12.8C1222,311.2,1222,311.5,1222.2,311.6z"/>
	<path class="st1" d="M1232.7,321.4c0.1,0.1,0.2,0.2,0.3,0.2s0.2,0,0.3-0.1l14.1-10.4c0.2-0.1,0.2-0.4,0.1-0.6s-0.4-0.2-0.6-0.1
		l-14.1,10.5C1232.6,320.9,1232.6,321.2,1232.7,321.4z"/>
	<path class="st1" d="M1239,328.8c0,0.2,0.2,0.3,0.4,0.3h0.1l17.8-3.7c0.2-0.1,0.4-0.3,0.3-0.5s-0.3-0.4-0.5-0.3l-17.8,3.7
		C1239.1,328.3,1238.9,328.6,1239,328.8z"/>
	<path class="st1" d="M1244.4,337.9c0,0.2,0.2,0.4,0.4,0.4l13.4,0.6l0,0c0.2,0,0.4-0.2,0.4-0.4c0-0.2-0.2-0.4-0.4-0.4l-13.4-0.6
		C1244.6,337.5,1244.4,337.7,1244.4,337.9z"/>
	<path class="st1" d="M1246,356.5l-12.7-9.5c-0.2-0.1-0.5-0.1-0.6,0.1s-0.1,0.5,0.1,0.6l12.7,9.5c0.1,0.1,0.2,0.1,0.3,0.1
		s0.3-0.1,0.3-0.2C1246.3,356.9,1246.2,356.6,1246,356.5z"/>
	<path class="st1" d="M1227.1,353.1c-0.2-0.2-0.4-0.2-0.6-0.1s-0.2,0.4-0.1,0.6l16.6,20c0.1,0.1,0.2,0.2,0.3,0.2s0.2,0,0.3-0.1
		c0.2-0.2,0.2-0.4,0.1-0.6L1227.1,353.1z"/>
	<path class="st1" d="M1222.2,359c-0.1-0.2-0.4-0.3-0.6-0.2c-0.2,0.1-0.3,0.4-0.2,0.6l5,8.8c0.1,0.1,0.2,0.2,0.4,0.2
		c0.1,0,0.1,0,0.2-0.1c0.2-0.1,0.3-0.4,0.2-0.6L1222.2,359z"/>
	<path class="st1" d="M1214.3,362.5c-0.2,0-0.4,0.2-0.4,0.4v18.5c0,0.2,0.2,0.4,0.4,0.4c0.2,0,0.4-0.2,0.4-0.4v-18.5
		C1214.7,362.7,1214.5,362.5,1214.3,362.5z"/>
	<path class="st1" d="M1208.3,356.2c-0.2-0.1-0.5-0.1-0.6,0.1l-12.4,18.1c-0.1,0.2-0.1,0.5,0.1,0.6c0.1,0.1,0.2,0.1,0.2,0.1
		c0.1,0,0.3-0.1,0.3-0.2l12.4-18C1208.6,356.6,1208.5,356.3,1208.3,356.2z"/>
	<path class="st1" d="M1201.4,348.2c-0.1-0.2-0.4-0.2-0.6-0.1l-20.2,14.9c-0.2,0.1-0.2,0.4-0.1,0.6c0.1,0.1,0.2,0.2,0.3,0.2
		s0.2,0,0.3-0.1l20.2-14.9C1201.5,348.7,1201.5,348.4,1201.4,348.2z"/>
	<path class="st1" d="M1188.7,339c0-0.2-0.3-0.4-0.5-0.3l-11.4,1.8c-0.2,0-0.4,0.3-0.3,0.5c0,0.2,0.2,0.4,0.4,0.4h0.1l11.4-1.9
		C1188.6,339.5,1188.8,339.3,1188.7,339z"/>
	<path class="st1" d="M1190.9,329.1c0.2,0,0.3-0.1,0.4-0.3c0.1-0.2,0-0.5-0.3-0.5l-19.4-6.7c-0.2-0.1-0.5,0-0.5,0.3
		c-0.1,0.2,0,0.5,0.3,0.5L1190.9,329.1L1190.9,329.1z"/>
	<path class="st1" d="M1198.4,323.2c0.1,0.1,0.2,0.1,0.3,0.1s0.2-0.1,0.3-0.1c0.2-0.2,0.1-0.5,0-0.6l-10.6-9.3
		c-0.2-0.2-0.5-0.1-0.6,0c-0.2,0.2-0.1,0.5,0,0.6L1198.4,323.2z"/>
	<path class="st1" d="M1204.2,319c0.1,0.1,0.2,0.2,0.3,0.2s0.2,0,0.3-0.1c0.2-0.1,0.2-0.4,0-0.6l-15.9-18.5c-0.2-0.2-0.4-0.2-0.6,0
		s-0.2,0.4,0,0.6L1204.2,319z"/>
	<path class="st1" d="M1186.5,349.1l-5.2,2.4c-0.2,0.1-0.3,0.3-0.2,0.6c0.1,0.2,0.2,0.3,0.4,0.3c0.1,0,0.1,0,0.2,0l5.2-2.4
		c0.2-0.1,0.3-0.4,0.2-0.6C1187,349.1,1186.7,349,1186.5,349.1z"/>
	<path class="st1" d="M1191.5,347.2c0.1,0.2,0.2,0.3,0.4,0.3c0.1,0,0.1,0,0.2,0l3.3-1.5c0.2-0.1,0.3-0.4,0.2-0.6s-0.3-0.3-0.6-0.2
		l-3.3,1.5C1191.5,346.7,1191.4,347,1191.5,347.2z"/>
	<path class="st1" d="M1258.4,350.7l-3.8-1.8c-0.2-0.1-0.5,0-0.6,0.2s0,0.5,0.2,0.6l3.8,1.8c0.1,0,0.1,0,0.2,0
		c0.2,0,0.3-0.1,0.4-0.2C1258.7,351.1,1258.6,350.8,1258.4,350.7z"/>
	<path class="st1" d="M1248.2,345.9l-7.6-3.6c-0.2-0.1-0.5,0-0.6,0.2s0,0.5,0.2,0.6l7.6,3.6c0.1,0,0.1,0,0.2,0
		c0.2,0,0.3-0.1,0.4-0.2C1248.5,346.2,1248.4,346,1248.2,345.9z"/>
	<path class="st1" d="M1241.2,299.8c0.1,0,0.3,0,0.3-0.2l2.1-2.6c0.2-0.2,0.1-0.5-0.1-0.6s-0.5-0.1-0.6,0.1l-2.1,2.6
		c-0.1,0.2-0.1,0.5,0.1,0.6S1241.2,299.8,1241.2,299.8z"/>
	<path class="st1" d="M1226.5,317.3c0.1,0.1,0.2,0.1,0.3,0.1s0.3,0,0.3-0.2l11.1-13.6c0.1-0.2,0.1-0.5-0.1-0.6s-0.4-0.1-0.6,0.1
		l-11.1,13.6C1226.3,316.9,1226.3,317.2,1226.5,317.3z"/>
</g>
<g class="st0">
	<path class="st1" d="M1831.1,395.6c0.2,0,0.4-0.2,0.4-0.4c0-0.2-0.2-0.4-0.4-0.4c-8-1.4-12.6-2.6-15.5-5.5s-4.1-7.5-5.5-15.5
		c0-0.2-0.2-0.4-0.4-0.4c-0.2,0-0.4,0.1-0.4,0.4c-1.4,8-2.6,12.6-5.4,15.5c-2.9,2.9-7.5,4.1-15.5,5.5c-0.2,0-0.4,0.2-0.4,0.4
		c0,0.2,0.1,0.4,0.3,0.4c15.5,2.9,18.2,4.6,20.9,20.9c0,0.2,0.2,0.4,0.4,0.4c0.2,0,0.4-0.2,0.4-0.4c1.4-8,2.6-12.6,5.5-15.5
		C1818.5,398.2,1823.1,396.9,1831.1,395.6z M1809.7,414c-2.6-13.8-5.9-16.2-18.9-18.8c13.6-2.5,16.4-5.3,18.9-18.9
		c2.5,13.5,5.3,16.3,18.8,18.8C1815,397.7,1812.2,400.5,1809.7,414z"/>
	<path class="st1" d="M1800.5,371.8c0.1,0.1,0.2,0.2,0.4,0.2c0.1,0,0.1,0,0.2,0c0.2-0.1,0.3-0.4,0.2-0.6l-2.4-4.6
		c-0.1-0.2-0.4-0.3-0.6-0.2c-0.2,0.1-0.3,0.4-0.2,0.6L1800.5,371.8z"/>
	<path class="st1" d="M1795.8,362.7c0.1,0.1,0.2,0.2,0.4,0.2c0.1,0,0.1,0,0.2-0.1c0.2-0.1,0.3-0.4,0.2-0.6l-2.1-4.1
		c-0.1-0.2-0.4-0.3-0.6-0.2c-0.2,0.1-0.3,0.4-0.2,0.6L1795.8,362.7z"/>
	<path class="st1" d="M1808.8,367.4c0.2,0,0.4-0.2,0.4-0.4v-23.7c0-0.2-0.2-0.4-0.4-0.4s-0.4,0.2-0.4,0.4v23.6
		C1808.3,367.2,1808.5,367.4,1808.8,367.4z"/>
	<path class="st1" d="M1816.2,372.6c0.1,0,0.1,0.1,0.2,0.1c0.2,0,0.3-0.1,0.4-0.2l7.1-12.8c0.1-0.2,0-0.5-0.2-0.6s-0.5,0-0.6,0.2
		l-7.1,12.8C1816,372.2,1816,372.5,1816.2,372.6z"/>
	<path class="st1" d="M1826.7,382.4c0.1,0.1,0.2,0.2,0.3,0.2s0.2,0,0.3-0.1l14.1-10.4c0.2-0.1,0.2-0.4,0.1-0.6s-0.4-0.2-0.6-0.1
		l-14.1,10.5C1826.6,381.9,1826.6,382.2,1826.7,382.4z"/>
	<path class="st1" d="M1833,389.8c0,0.2,0.2,0.3,0.4,0.3h0.1l17.8-3.7c0.2-0.1,0.4-0.3,0.3-0.5s-0.3-0.4-0.5-0.3l-17.8,3.7
		C1833.1,389.3,1832.9,389.6,1833,389.8z"/>
	<path class="st1" d="M1838.4,398.9c0,0.2,0.2,0.4,0.4,0.4l13.4,0.6l0,0c0.2,0,0.4-0.2,0.4-0.4c0-0.2-0.2-0.4-0.4-0.4l-13.4-0.6
		C1838.6,398.5,1838.4,398.7,1838.4,398.9z"/>
	<path class="st1" d="M1840,417.5l-12.7-9.5c-0.2-0.1-0.5-0.1-0.6,0.1s-0.1,0.5,0.1,0.6l12.7,9.5c0.1,0.1,0.2,0.1,0.3,0.1
		s0.3-0.1,0.3-0.2C1840.3,417.9,1840.2,417.6,1840,417.5z"/>
	<path class="st1" d="M1821.1,414.1c-0.2-0.2-0.4-0.2-0.6-0.1s-0.2,0.4-0.1,0.6l16.6,20c0.1,0.1,0.2,0.2,0.3,0.2s0.2,0,0.3-0.1
		c0.2-0.2,0.2-0.4,0.1-0.6L1821.1,414.1z"/>
	<path class="st1" d="M1816.2,420c-0.1-0.2-0.4-0.3-0.6-0.2c-0.2,0.1-0.3,0.4-0.2,0.6l5,8.8c0.1,0.1,0.2,0.2,0.4,0.2
		c0.1,0,0.1,0,0.2-0.1c0.2-0.1,0.3-0.4,0.2-0.6L1816.2,420z"/>
	<path class="st1" d="M1808.3,423.5c-0.2,0-0.4,0.2-0.4,0.4v18.5c0,0.2,0.2,0.4,0.4,0.4c0.2,0,0.4-0.2,0.4-0.4v-18.5
		C1808.7,423.7,1808.5,423.5,1808.3,423.5z"/>
	<path class="st1" d="M1802.3,417.2c-0.2-0.1-0.5-0.1-0.6,0.1l-12.4,18.1c-0.1,0.2-0.1,0.5,0.1,0.6c0.1,0.1,0.2,0.1,0.2,0.1
		c0.1,0,0.3-0.1,0.3-0.2l12.4-18C1802.6,417.6,1802.5,417.3,1802.3,417.2z"/>
	<path class="st1" d="M1795.4,409.2c-0.1-0.2-0.4-0.2-0.6-0.1l-20.2,14.9c-0.2,0.1-0.2,0.4-0.1,0.6c0.1,0.1,0.2,0.2,0.3,0.2
		s0.2,0,0.3-0.1l20.2-14.9C1795.5,409.7,1795.5,409.4,1795.4,409.2z"/>
	<path class="st1" d="M1782.7,400c0-0.2-0.3-0.4-0.5-0.3l-11.4,1.8c-0.2,0-0.4,0.3-0.3,0.5c0,0.2,0.2,0.4,0.4,0.4h0.1l11.4-1.9
		C1782.6,400.5,1782.8,400.3,1782.7,400z"/>
	<path class="st1" d="M1784.9,390.1c0.2,0,0.3-0.1,0.4-0.3c0.1-0.2,0-0.5-0.3-0.5l-19.4-6.7c-0.2-0.1-0.5,0-0.5,0.3
		c-0.1,0.2,0,0.5,0.3,0.5L1784.9,390.1L1784.9,390.1z"/>
	<path class="st1" d="M1792.4,384.2c0.1,0.1,0.2,0.1,0.3,0.1s0.2-0.1,0.3-0.1c0.2-0.2,0.1-0.5,0-0.6l-10.6-9.3
		c-0.2-0.2-0.5-0.1-0.6,0c-0.2,0.2-0.1,0.5,0,0.6L1792.4,384.2z"/>
	<path class="st1" d="M1798.2,380c0.1,0.1,0.2,0.2,0.3,0.2s0.2,0,0.3-0.1c0.2-0.1,0.2-0.4,0-0.6l-15.9-18.5c-0.2-0.2-0.4-0.2-0.6,0
		s-0.2,0.4,0,0.6L1798.2,380z"/>
	<path class="st1" d="M1780.5,410.1l-5.2,2.4c-0.2,0.1-0.3,0.3-0.2,0.6c0.1,0.2,0.2,0.3,0.4,0.3c0.1,0,0.1,0,0.2,0l5.2-2.4
		c0.2-0.1,0.3-0.4,0.2-0.6C1781,410.1,1780.7,410,1780.5,410.1z"/>
	<path class="st1" d="M1785.5,408.2c0.1,0.2,0.2,0.3,0.4,0.3c0.1,0,0.1,0,0.2,0l3.3-1.5c0.2-0.1,0.3-0.4,0.2-0.6s-0.3-0.3-0.6-0.2
		l-3.3,1.5C1785.5,407.7,1785.4,408,1785.5,408.2z"/>
	<path class="st1" d="M1852.4,411.7l-3.8-1.8c-0.2-0.1-0.5,0-0.6,0.2s0,0.5,0.2,0.6l3.8,1.8c0.1,0,0.1,0,0.2,0
		c0.2,0,0.3-0.1,0.4-0.2C1852.7,412.1,1852.6,411.8,1852.4,411.7z"/>
	<path class="st1" d="M1842.2,406.9l-7.6-3.6c-0.2-0.1-0.5,0-0.6,0.2s0,0.5,0.2,0.6l7.6,3.6c0.1,0,0.1,0,0.2,0
		c0.2,0,0.3-0.1,0.4-0.2C1842.5,407.2,1842.4,407,1842.2,406.9z"/>
	<path class="st1" d="M1835.2,360.8c0.1,0,0.3,0,0.3-0.2l2.1-2.6c0.2-0.2,0.1-0.5-0.1-0.6s-0.5-0.1-0.6,0.1l-2.1,2.6
		c-0.1,0.2-0.1,0.5,0.1,0.6S1835.2,360.8,1835.2,360.8z"/>
	<path class="st1" d="M1820.5,378.3c0.1,0.1,0.2,0.1,0.3,0.1s0.3,0,0.3-0.2l11.1-13.6c0.1-0.2,0.1-0.5-0.1-0.6s-0.4-0.1-0.6,0.1
		l-11.1,13.6C1820.3,377.9,1820.3,378.2,1820.5,378.3z"/>
</g>
<g class="st0">
	<path class="st1" d="M1473.1,870.6c0.2,0,0.4-0.2,0.4-0.4s-0.2-0.4-0.4-0.4c-8-1.4-12.6-2.6-15.5-5.5s-4.1-7.5-5.5-15.5
		c0-0.2-0.2-0.4-0.4-0.4c-0.2,0-0.4,0.1-0.4,0.4c-1.4,8-2.6,12.6-5.4,15.5s-7.5,4.1-15.5,5.5c-0.2,0-0.4,0.2-0.4,0.4
		s0.1,0.4,0.3,0.4c15.5,2.9,18.2,4.6,20.9,20.9c0,0.2,0.2,0.4,0.4,0.4c0.2,0,0.4-0.2,0.4-0.4c1.4-8,2.6-12.6,5.5-15.5
		C1460.5,873.2,1465.1,871.9,1473.1,870.6z M1451.7,889c-2.6-13.8-5.9-16.2-18.9-18.8c13.6-2.5,16.4-5.3,18.9-18.8
		c2.5,13.5,5.3,16.3,18.8,18.8C1457,872.7,1454.2,875.5,1451.7,889z"/>
	<path class="st1" d="M1442.5,846.8c0.1,0.2,0.2,0.2,0.4,0.2c0.1,0,0.1,0,0.2,0c0.2-0.1,0.3-0.4,0.2-0.6l-2.4-4.6
		c-0.1-0.2-0.4-0.3-0.6-0.2s-0.3,0.4-0.2,0.6L1442.5,846.8z"/>
	<path class="st1" d="M1437.8,837.7c0.1,0.2,0.2,0.2,0.4,0.2c0.1,0,0.1,0,0.2,0c0.2-0.1,0.3-0.4,0.2-0.6l-2.1-4.1
		c-0.1-0.2-0.4-0.3-0.6-0.2s-0.3,0.4-0.2,0.6L1437.8,837.7z"/>
	<path class="st1" d="M1450.8,842.4c0.2,0,0.4-0.2,0.4-0.4v-23.7c0-0.2-0.2-0.4-0.4-0.4s-0.4,0.2-0.4,0.4v23.6
		C1450.3,842.2,1450.5,842.4,1450.8,842.4z"/>
	<path class="st1" d="M1458.2,847.6c0.1,0,0.1,0,0.2,0c0.2,0,0.3-0.1,0.4-0.2l7.1-12.8c0.1-0.2,0-0.5-0.2-0.6s-0.5,0-0.6,0.2
		L1458,847C1458,847.2,1458,847.5,1458.2,847.6z"/>
	<path class="st1" d="M1468.7,857.4c0.1,0.1,0.2,0.2,0.3,0.2s0.2,0,0.3-0.1l14.1-10.5c0.2-0.1,0.2-0.4,0.1-0.6
		c-0.1-0.2-0.4-0.2-0.6-0.1l-14.1,10.5C1468.6,856.9,1468.6,857.2,1468.7,857.4z"/>
	<path class="st1" d="M1475,864.8c0,0.2,0.2,0.3,0.4,0.3h0.1l17.8-3.7c0.2,0,0.4-0.3,0.3-0.5s-0.3-0.4-0.5-0.3l-17.8,3.7
		C1475.1,864.3,1474.9,864.6,1475,864.8z"/>
	<path class="st1" d="M1480.4,873.9c0,0.2,0.2,0.4,0.4,0.4l13.4,0.6l0,0c0.2,0,0.4-0.2,0.4-0.4s-0.2-0.4-0.4-0.4l-13.4-0.6
		C1480.6,873.5,1480.4,873.7,1480.4,873.9z"/>
	<path class="st1" d="M1482,892.5l-12.7-9.5c-0.2-0.1-0.5-0.1-0.6,0.1c-0.1,0.2-0.1,0.5,0.1,0.6l12.7,9.5c0.1,0.1,0.2,0.1,0.3,0.1
		s0.3-0.1,0.3-0.2C1482.3,892.9,1482.2,892.6,1482,892.5z"/>
	<path class="st1" d="M1463.1,889.1c-0.2-0.2-0.4-0.2-0.6-0.1c-0.2,0.2-0.2,0.4-0.1,0.6l16.6,20c0.1,0.1,0.2,0.2,0.3,0.2
		s0.2,0,0.3-0.1c0.2-0.1,0.2-0.4,0.1-0.6L1463.1,889.1z"/>
	<path class="st1" d="M1458.2,895c-0.1-0.2-0.4-0.3-0.6-0.2s-0.3,0.4-0.2,0.6l5,8.8c0.1,0.1,0.2,0.2,0.4,0.2c0.1,0,0.1,0,0.2-0.1
		c0.2-0.1,0.3-0.4,0.2-0.6L1458.2,895z"/>
	<path class="st1" d="M1450.3,898.5c-0.2,0-0.4,0.2-0.4,0.4v18.5c0,0.2,0.2,0.4,0.4,0.4c0.2,0,0.4-0.2,0.4-0.4v-18.5
		C1450.7,898.7,1450.5,898.5,1450.3,898.5z"/>
	<path class="st1" d="M1444.3,892.2c-0.2-0.1-0.5-0.1-0.6,0.1l-12.4,18.1c-0.1,0.2-0.1,0.5,0.1,0.6c0.1,0,0.2,0.1,0.2,0.1
		c0.1,0,0.3-0.1,0.3-0.2l12.4-18C1444.6,892.6,1444.5,892.3,1444.3,892.2z"/>
	<path class="st1" d="M1437.4,884.2c-0.1-0.2-0.4-0.2-0.6-0.1l-20.2,14.9c-0.2,0.1-0.2,0.4-0.1,0.6c0.1,0.1,0.2,0.2,0.3,0.2
		s0.2,0,0.3-0.1l20.2-14.9C1437.5,884.7,1437.5,884.4,1437.4,884.2z"/>
	<path class="st1" d="M1424.7,875c0-0.2-0.3-0.4-0.5-0.4l-11.4,1.9c-0.2,0-0.4,0.3-0.3,0.5c0,0.2,0.2,0.4,0.4,0.4h0.1l11.4-1.8
		C1424.6,875.5,1424.8,875.3,1424.7,875z"/>
	<path class="st1" d="M1426.9,865.1c0.2,0,0.3-0.1,0.4-0.3s0-0.5-0.3-0.5l-19.4-6.7c-0.2-0.1-0.5,0-0.5,0.3c-0.1,0.2,0,0.5,0.3,0.5
		L1426.9,865.1L1426.9,865.1z"/>
	<path class="st1" d="M1434.4,859.2c0.1,0.1,0.2,0.1,0.3,0.1s0.2,0,0.3-0.1c0.2-0.2,0.1-0.5,0-0.6l-10.6-9.3c-0.2-0.2-0.5-0.1-0.6,0
		c-0.2,0.2-0.1,0.5,0,0.6L1434.4,859.2z"/>
	<path class="st1" d="M1440.2,855c0.1,0.1,0.2,0.1,0.3,0.1s0.2,0,0.3-0.1c0.2-0.2,0.2-0.4,0-0.6l-15.9-18.5c-0.2-0.2-0.4-0.2-0.6,0
		s-0.2,0.4,0,0.6L1440.2,855z"/>
	<path class="st1" d="M1422.5,885.1l-5.2,2.4c-0.2,0.1-0.3,0.4-0.2,0.6c0.1,0.2,0.2,0.3,0.4,0.3c0.1,0,0.1,0,0.2,0l5.2-2.4
		c0.2-0.1,0.3-0.4,0.2-0.6C1423,885.1,1422.7,885,1422.5,885.1z"/>
	<path class="st1" d="M1427.5,883.2c0.1,0.2,0.2,0.3,0.4,0.3c0.1,0,0.1,0,0.2,0l3.3-1.5c0.2-0.1,0.3-0.3,0.2-0.6
		c-0.1-0.2-0.3-0.3-0.6-0.2l-3.3,1.5C1427.5,882.7,1427.4,883,1427.5,883.2z"/>
	<path class="st1" d="M1494.4,886.7l-3.8-1.8c-0.2-0.1-0.5,0-0.6,0.2s0,0.5,0.2,0.6l3.8,1.8c0.1,0,0.1,0,0.2,0
		c0.2,0,0.3-0.1,0.4-0.2C1494.7,887.1,1494.6,886.8,1494.4,886.7z"/>
	<path class="st1" d="M1484.2,881.9l-7.6-3.6c-0.2-0.1-0.5,0-0.6,0.2s0,0.5,0.2,0.6l7.6,3.6c0.1,0,0.1,0,0.2,0
		c0.2,0,0.3-0.1,0.4-0.2C1484.5,882.2,1484.4,882,1484.2,881.9z"/>
	<path class="st1" d="M1477.2,835.8c0.1,0,0.3,0,0.3-0.2l2.1-2.6c0.2-0.2,0.1-0.5-0.1-0.6c-0.2-0.2-0.5-0.1-0.6,0.1l-2.1,2.6
		c-0.1,0.2-0.1,0.5,0.1,0.6C1477.1,835.8,1477.2,835.8,1477.2,835.8z"/>
	<path class="st1" d="M1462.5,853.3c0.1,0.1,0.2,0.1,0.3,0.1s0.3,0,0.3-0.2l11.1-13.6c0.1-0.2,0.1-0.5-0.1-0.6s-0.4-0.1-0.6,0.1
		l-11.1,13.6C1462.3,852.9,1462.3,853.2,1462.5,853.3z"/>
</g>
<g class="st0">
	<path class="st1" d="M1778.1,810.6c0.2,0,0.4-0.2,0.4-0.4s-0.2-0.4-0.4-0.4c-8-1.4-12.6-2.6-15.5-5.5s-4.1-7.5-5.5-15.5
		c0-0.2-0.2-0.4-0.4-0.4c-0.2,0-0.4,0.1-0.4,0.4c-1.4,8-2.6,12.6-5.4,15.5s-7.5,4.1-15.5,5.5c-0.2,0-0.4,0.2-0.4,0.4
		s0.1,0.4,0.3,0.4c15.5,2.9,18.2,4.6,20.9,20.9c0,0.2,0.2,0.4,0.4,0.4c0.2,0,0.4-0.2,0.4-0.4c1.4-8,2.6-12.6,5.5-15.5
		C1765.5,813.2,1770.1,811.9,1778.1,810.6z M1756.7,829c-2.6-13.8-5.9-16.2-18.9-18.8c13.6-2.5,16.4-5.3,18.9-18.8
		c2.5,13.5,5.3,16.3,18.8,18.8C1762,812.7,1759.2,815.5,1756.7,829z"/>
	<path class="st1" d="M1747.5,786.8c0.1,0.2,0.2,0.2,0.4,0.2c0.1,0,0.1,0,0.2,0c0.2-0.1,0.3-0.4,0.2-0.6l-2.4-4.6
		c-0.1-0.2-0.4-0.3-0.6-0.2s-0.3,0.4-0.2,0.6L1747.5,786.8z"/>
	<path class="st1" d="M1742.8,777.7c0.1,0.2,0.2,0.2,0.4,0.2c0.1,0,0.1,0,0.2,0c0.2-0.1,0.3-0.4,0.2-0.6l-2.1-4.1
		c-0.1-0.2-0.4-0.3-0.6-0.2s-0.3,0.4-0.2,0.6L1742.8,777.7z"/>
	<path class="st1" d="M1755.8,782.4c0.2,0,0.4-0.2,0.4-0.4v-23.7c0-0.2-0.2-0.4-0.4-0.4s-0.4,0.2-0.4,0.4v23.6
		C1755.3,782.2,1755.5,782.4,1755.8,782.4z"/>
	<path class="st1" d="M1763.2,787.6c0.1,0,0.1,0,0.2,0c0.2,0,0.3-0.1,0.4-0.2l7.1-12.8c0.1-0.2,0-0.5-0.2-0.6s-0.5,0-0.6,0.2
		L1763,787C1763,787.2,1763,787.5,1763.2,787.6z"/>
	<path class="st1" d="M1773.7,797.4c0.1,0.1,0.2,0.2,0.3,0.2s0.2,0,0.3-0.1l14.1-10.5c0.2-0.1,0.2-0.4,0.1-0.6
		c-0.1-0.2-0.4-0.2-0.6-0.1l-14.1,10.5C1773.6,796.9,1773.6,797.2,1773.7,797.4z"/>
	<path class="st1" d="M1780,804.8c0,0.2,0.2,0.3,0.4,0.3h0.1l17.8-3.7c0.2,0,0.4-0.3,0.3-0.5s-0.3-0.4-0.5-0.3l-17.8,3.7
		C1780.1,804.3,1779.9,804.6,1780,804.8z"/>
	<path class="st1" d="M1785.4,813.9c0,0.2,0.2,0.4,0.4,0.4l13.4,0.6l0,0c0.2,0,0.4-0.2,0.4-0.4s-0.2-0.4-0.4-0.4l-13.4-0.6
		C1785.6,813.5,1785.4,813.7,1785.4,813.9z"/>
	<path class="st1" d="M1787,832.5l-12.7-9.5c-0.2-0.1-0.5-0.1-0.6,0.1c-0.1,0.2-0.1,0.5,0.1,0.6l12.7,9.5c0.1,0.1,0.2,0.1,0.3,0.1
		s0.3-0.1,0.3-0.2C1787.3,832.9,1787.2,832.6,1787,832.5z"/>
	<path class="st1" d="M1768.1,829.1c-0.2-0.2-0.4-0.2-0.6-0.1c-0.2,0.2-0.2,0.4-0.1,0.6l16.6,20c0.1,0.1,0.2,0.2,0.3,0.2
		s0.2,0,0.3-0.1c0.2-0.1,0.2-0.4,0.1-0.6L1768.1,829.1z"/>
	<path class="st1" d="M1763.2,835c-0.1-0.2-0.4-0.3-0.6-0.2s-0.3,0.4-0.2,0.6l5,8.8c0.1,0.1,0.2,0.2,0.4,0.2c0.1,0,0.1,0,0.2-0.1
		c0.2-0.1,0.3-0.4,0.2-0.6L1763.2,835z"/>
	<path class="st1" d="M1755.3,838.5c-0.2,0-0.4,0.2-0.4,0.4v18.5c0,0.2,0.2,0.4,0.4,0.4c0.2,0,0.4-0.2,0.4-0.4v-18.5
		C1755.7,838.7,1755.5,838.5,1755.3,838.5z"/>
	<path class="st1" d="M1749.3,832.2c-0.2-0.1-0.5-0.1-0.6,0.1l-12.4,18.1c-0.1,0.2-0.1,0.5,0.1,0.6c0.1,0,0.2,0.1,0.2,0.1
		c0.1,0,0.3-0.1,0.3-0.2l12.4-18C1749.6,832.6,1749.5,832.3,1749.3,832.2z"/>
	<path class="st1" d="M1742.4,824.2c-0.1-0.2-0.4-0.2-0.6-0.1l-20.2,14.9c-0.2,0.1-0.2,0.4-0.1,0.6c0.1,0.1,0.2,0.2,0.3,0.2
		s0.2,0,0.3-0.1l20.2-14.9C1742.5,824.7,1742.5,824.4,1742.4,824.2z"/>
	<path class="st1" d="M1729.7,815c0-0.2-0.3-0.4-0.5-0.4l-11.4,1.9c-0.2,0-0.4,0.3-0.3,0.5c0,0.2,0.2,0.4,0.4,0.4h0.1l11.4-1.8
		C1729.6,815.5,1729.8,815.3,1729.7,815z"/>
	<path class="st1" d="M1731.9,805.1c0.2,0,0.3-0.1,0.4-0.3s0-0.5-0.3-0.5l-19.4-6.7c-0.2-0.1-0.5,0-0.5,0.3c-0.1,0.2,0,0.5,0.3,0.5
		L1731.9,805.1L1731.9,805.1z"/>
	<path class="st1" d="M1739.4,799.2c0.1,0.1,0.2,0.1,0.3,0.1s0.2,0,0.3-0.1c0.2-0.2,0.1-0.5,0-0.6l-10.6-9.3c-0.2-0.2-0.5-0.1-0.6,0
		c-0.2,0.2-0.1,0.5,0,0.6L1739.4,799.2z"/>
	<path class="st1" d="M1745.2,795c0.1,0.1,0.2,0.1,0.3,0.1s0.2,0,0.3-0.1c0.2-0.2,0.2-0.4,0-0.6l-15.9-18.5c-0.2-0.2-0.4-0.2-0.6,0
		s-0.2,0.4,0,0.6L1745.2,795z"/>
	<path class="st1" d="M1727.5,825.1l-5.2,2.4c-0.2,0.1-0.3,0.4-0.2,0.6c0.1,0.2,0.2,0.3,0.4,0.3c0.1,0,0.1,0,0.2,0l5.2-2.4
		c0.2-0.1,0.3-0.4,0.2-0.6C1728,825.1,1727.7,825,1727.5,825.1z"/>
	<path class="st1" d="M1732.5,823.2c0.1,0.2,0.2,0.3,0.4,0.3c0.1,0,0.1,0,0.2,0l3.3-1.5c0.2-0.1,0.3-0.3,0.2-0.6
		c-0.1-0.2-0.3-0.3-0.6-0.2l-3.3,1.5C1732.5,822.7,1732.4,823,1732.5,823.2z"/>
	<path class="st1" d="M1799.4,826.7l-3.8-1.8c-0.2-0.1-0.5,0-0.6,0.2s0,0.5,0.2,0.6l3.8,1.8c0.1,0,0.1,0,0.2,0
		c0.2,0,0.3-0.1,0.4-0.2C1799.7,827.1,1799.6,826.8,1799.4,826.7z"/>
	<path class="st1" d="M1789.2,821.9l-7.6-3.6c-0.2-0.1-0.5,0-0.6,0.2s0,0.5,0.2,0.6l7.6,3.6c0.1,0,0.1,0,0.2,0
		c0.2,0,0.3-0.1,0.4-0.2C1789.5,822.2,1789.4,822,1789.2,821.9z"/>
	<path class="st1" d="M1782.2,775.8c0.1,0,0.3,0,0.3-0.2l2.1-2.6c0.2-0.2,0.1-0.5-0.1-0.6c-0.2-0.2-0.5-0.1-0.6,0.1l-2.1,2.6
		c-0.1,0.2-0.1,0.5,0.1,0.6C1782.1,775.8,1782.2,775.8,1782.2,775.8z"/>
	<path class="st1" d="M1767.5,793.3c0.1,0.1,0.2,0.1,0.3,0.1s0.3,0,0.3-0.2l11.1-13.6c0.1-0.2,0.1-0.5-0.1-0.6s-0.4-0.1-0.6,0.1
		l-11.1,13.6C1767.3,792.9,1767.3,793.2,1767.5,793.3z"/>
</g>
<g class="st0">
	<path class="st1" d="M1366.1,91.6c0.2,0,0.4-0.2,0.4-0.4s-0.2-0.4-0.4-0.4c-8-1.4-12.6-2.6-15.5-5.4c-2.9-2.9-4.1-7.5-5.5-15.5
		c0-0.2-0.2-0.4-0.4-0.4c-0.2,0-0.4,0.1-0.4,0.4c-1.4,8-2.6,12.6-5.4,15.5c-2.9,2.9-7.5,4.1-15.5,5.4c-0.2,0-0.4,0.2-0.4,0.4
		c0,0.2,0.1,0.4,0.3,0.4c15.5,2.9,18.2,4.6,20.9,20.9c0,0.2,0.2,0.4,0.4,0.4c0.2,0,0.4-0.2,0.4-0.4c1.4-8,2.6-12.6,5.5-15.5
		C1353.5,94.2,1358.1,92.9,1366.1,91.6z M1344.7,110c-2.6-13.8-5.9-16.2-18.9-18.8c13.6-2.5,16.4-5.3,18.9-18.8
		c2.5,13.5,5.3,16.3,18.8,18.8C1350,93.7,1347.2,96.5,1344.7,110z"/>
	<path class="st1" d="M1335.5,67.8c0.1,0.2,0.2,0.2,0.4,0.2c0.1,0,0.1,0,0.2-0.1c0.2-0.1,0.3-0.4,0.2-0.6l-2.4-4.6
		c-0.1-0.2-0.4-0.3-0.6-0.2s-0.3,0.4-0.2,0.6L1335.5,67.8z"/>
	<path class="st1" d="M1330.8,58.7c0.1,0.2,0.2,0.2,0.4,0.2c0.1,0,0.1,0,0.2,0c0.2-0.1,0.3-0.4,0.2-0.6l-2.1-4.1
		c-0.1-0.2-0.4-0.3-0.6-0.2s-0.3,0.4-0.2,0.6L1330.8,58.7z"/>
	<path class="st1" d="M1343.8,63.4c0.2,0,0.4-0.2,0.4-0.4V39.3c0-0.2-0.2-0.4-0.4-0.4s-0.4,0.2-0.4,0.4v23.6
		C1343.3,63.2,1343.5,63.4,1343.8,63.4z"/>
	<path class="st1" d="M1351.2,68.6c0.1,0,0.1,0,0.2,0c0.2,0,0.3-0.1,0.4-0.2l7.1-12.8c0.1-0.2,0-0.5-0.2-0.6s-0.5,0-0.6,0.2L1351,68
		C1351,68.2,1351,68.5,1351.2,68.6z"/>
	<path class="st1" d="M1361.7,78.4c0.1,0.1,0.2,0.2,0.3,0.2s0.2,0,0.3-0.1l14.1-10.5c0.2-0.1,0.2-0.4,0.1-0.6s-0.4-0.2-0.6-0.1
		l-14.1,10.5C1361.6,77.9,1361.6,78.2,1361.7,78.4z"/>
	<path class="st1" d="M1368,85.8c0,0.2,0.2,0.3,0.4,0.3h0.1l17.8-3.7c0.2-0.1,0.4-0.3,0.3-0.5s-0.3-0.4-0.5-0.3l-17.8,3.7
		C1368.1,85.3,1367.9,85.6,1368,85.8z"/>
	<path class="st1" d="M1373.4,94.9c0,0.2,0.2,0.4,0.4,0.4l13.4,0.6l0,0c0.2,0,0.4-0.2,0.4-0.4c0-0.2-0.2-0.4-0.4-0.4l-13.4-0.6
		C1373.6,94.5,1373.4,94.7,1373.4,94.9z"/>
	<path class="st1" d="M1375,113.5l-12.7-9.5c-0.2-0.1-0.5-0.1-0.6,0.1s-0.1,0.5,0.1,0.6l12.7,9.5c0.1,0.1,0.2,0.1,0.3,0.1
		s0.3-0.1,0.3-0.2C1375.3,113.9,1375.2,113.6,1375,113.5z"/>
	<path class="st1" d="M1356.1,110.1c-0.2-0.2-0.4-0.2-0.6-0.1c-0.2,0.2-0.2,0.4-0.1,0.6l16.6,20c0.1,0.1,0.2,0.2,0.3,0.2
		s0.2,0,0.3-0.1c0.2-0.1,0.2-0.4,0.1-0.6L1356.1,110.1z"/>
	<path class="st1" d="M1351.2,116c-0.1-0.2-0.4-0.3-0.6-0.2c-0.2,0.1-0.3,0.4-0.2,0.6l5,8.8c0.1,0.1,0.2,0.2,0.4,0.2
		c0.1,0,0.1,0,0.2-0.1c0.2-0.1,0.3-0.4,0.2-0.6L1351.2,116z"/>
	<path class="st1" d="M1343.3,119.5c-0.2,0-0.4,0.2-0.4,0.4v18.5c0,0.2,0.2,0.4,0.4,0.4c0.2,0,0.4-0.2,0.4-0.4v-18.5
		C1343.7,119.7,1343.5,119.5,1343.3,119.5z"/>
	<path class="st1" d="M1337.3,113.2c-0.2-0.1-0.5-0.1-0.6,0.1l-12.4,18.1c-0.1,0.2-0.1,0.5,0.1,0.6c0.1,0.1,0.2,0.1,0.2,0.1
		c0.1,0,0.3-0.1,0.3-0.2l12.4-18.1C1337.6,113.6,1337.5,113.3,1337.3,113.2z"/>
	<path class="st1" d="M1330.4,105.2c-0.1-0.2-0.4-0.2-0.6-0.1l-20.2,14.9c-0.2,0.1-0.2,0.4-0.1,0.6c0.1,0.1,0.2,0.2,0.3,0.2
		s0.2,0,0.3-0.1l20.2-14.9C1330.5,105.7,1330.5,105.4,1330.4,105.2z"/>
	<path class="st1" d="M1317.7,96c0-0.2-0.3-0.4-0.5-0.3l-11.4,1.8c-0.2,0-0.4,0.3-0.3,0.5c0,0.2,0.2,0.4,0.4,0.4h0.1l11.4-1.8
		C1317.6,96.5,1317.8,96.3,1317.7,96z"/>
	<path class="st1" d="M1319.9,86.1c0.2,0,0.3-0.1,0.4-0.3c0.1-0.2,0-0.5-0.3-0.5l-19.4-6.7c-0.2-0.1-0.5,0-0.5,0.3
		c-0.1,0.2,0,0.5,0.3,0.5L1319.9,86.1L1319.9,86.1z"/>
	<path class="st1" d="M1327.4,80.2c0.1,0.1,0.2,0.1,0.3,0.1s0.2,0,0.3-0.2c0.2-0.2,0.1-0.4,0-0.6l-10.6-9.3c-0.2-0.2-0.5-0.1-0.6,0
		c-0.2,0.2-0.1,0.4,0,0.6L1327.4,80.2z"/>
	<path class="st1" d="M1333.2,76c0.1,0.1,0.2,0.2,0.3,0.2s0.2,0,0.3-0.1c0.2-0.2,0.2-0.4,0-0.6L1317.9,57c-0.2-0.2-0.4-0.2-0.6,0
		c-0.2,0.1-0.2,0.4,0,0.6L1333.2,76z"/>
	<path class="st1" d="M1315.5,106.1l-5.2,2.4c-0.2,0.1-0.3,0.3-0.2,0.6c0.1,0.2,0.2,0.3,0.4,0.3c0.1,0,0.1,0,0.2,0l5.2-2.4
		c0.2-0.1,0.3-0.3,0.2-0.6C1316,106.1,1315.7,106,1315.5,106.1z"/>
	<path class="st1" d="M1320.5,104.2c0.1,0.2,0.2,0.3,0.4,0.3c0.1,0,0.1,0,0.2,0l3.3-1.5c0.2-0.1,0.3-0.3,0.2-0.6
		c-0.1-0.2-0.3-0.3-0.6-0.2l-3.3,1.5C1320.5,103.7,1320.4,104,1320.5,104.2z"/>
	<path class="st1" d="M1387.4,107.7l-3.8-1.8c-0.2-0.1-0.5,0-0.6,0.2s0,0.5,0.2,0.6l3.8,1.8c0.1,0,0.1,0,0.2,0
		c0.2,0,0.3-0.1,0.4-0.2C1387.7,108.1,1387.6,107.8,1387.4,107.7z"/>
	<path class="st1" d="M1377.2,102.9l-7.6-3.6c-0.2-0.1-0.5,0-0.6,0.2s0,0.5,0.2,0.6l7.6,3.6c0.1,0,0.1,0,0.2,0
		c0.2,0,0.3-0.1,0.4-0.2C1377.5,103.2,1377.4,103,1377.2,102.9z"/>
	<path class="st1" d="M1370.2,56.8c0.1,0,0.3,0,0.3-0.2l2.1-2.6c0.2-0.2,0.1-0.5-0.1-0.6c-0.2-0.2-0.5-0.1-0.6,0.1l-2.1,2.6
		c-0.1,0.2-0.1,0.5,0.1,0.6C1370.1,56.8,1370.2,56.8,1370.2,56.8z"/>
	<path class="st1" d="M1355.5,74.3c0.1,0.1,0.2,0.1,0.3,0.1s0.3-0.1,0.3-0.2l11.1-13.6c0.1-0.2,0.1-0.5-0.1-0.6s-0.4-0.1-0.6,0.1
		l-11.1,13.6C1355.3,73.9,1355.3,74.2,1355.5,74.3z"/>
</g>
<g class="st0">
	<path class="st1" d="M944.1,249.6c0.2,0,0.4-0.2,0.4-0.4s-0.2-0.4-0.4-0.4c-8-1.4-12.6-2.6-15.5-5.4s-4.1-7.5-5.5-15.5
		c0-0.2-0.2-0.4-0.4-0.4s-0.4,0.2-0.4,0.4c-1.4,8-2.6,12.6-5.4,15.5c-2.9,2.9-7.5,4.1-15.5,5.4c-0.2,0-0.3,0.2-0.4,0.4
		c0,0.2,0.1,0.4,0.4,0.4c15.5,2.9,18.2,4.6,20.9,20.9c0,0.2,0.2,0.4,0.4,0.4s0.4-0.2,0.4-0.4c1.4-8,2.6-12.6,5.5-15.5
		C931.5,252.2,936.1,250.9,944.1,249.6z M922.7,268c-2.6-13.8-5.9-16.2-18.9-18.8c13.6-2.5,16.4-5.3,18.9-18.9
		c2.5,13.5,5.3,16.3,18.8,18.8C928,251.7,925.2,254.5,922.7,268z"/>
	<path class="st1" d="M913.5,225.8c0.1,0.1,0.2,0.2,0.4,0.2c0.1,0,0.1,0,0.2-0.1c0.2-0.1,0.3-0.4,0.2-0.6l-2.4-4.6
		c-0.1-0.2-0.4-0.3-0.6-0.2c-0.2,0.1-0.3,0.4-0.2,0.6L913.5,225.8z"/>
	<path class="st1" d="M908.8,216.7c0.1,0.1,0.2,0.2,0.4,0.2c0.1,0,0.1,0,0.2-0.1c0.2-0.1,0.3-0.4,0.2-0.6l-2.1-4.1
		c-0.1-0.2-0.4-0.3-0.6-0.2c-0.2,0.1-0.3,0.4-0.2,0.6L908.8,216.7z"/>
	<path class="st1" d="M921.8,221.4c0.2,0,0.4-0.2,0.4-0.4v-23.7c0-0.2-0.2-0.4-0.4-0.4s-0.4,0.2-0.4,0.4v23.6
		C921.3,221.2,921.5,221.4,921.8,221.4z"/>
	<path class="st1" d="M929.2,226.6c0.1,0,0.1,0.1,0.2,0.1c0.2,0,0.3-0.1,0.4-0.2l7.1-12.8c0.1-0.2,0-0.5-0.2-0.6s-0.5,0-0.6,0.2
		l-7.1,12.8C929,226.2,929,226.5,929.2,226.6z"/>
	<path class="st1" d="M939.7,236.4c0.1,0.1,0.2,0.2,0.3,0.2s0.2,0,0.3-0.1l14.1-10.4c0.2-0.1,0.2-0.4,0.1-0.6s-0.4-0.2-0.6-0.1
		l-14.1,10.4C939.6,235.9,939.6,236.2,939.7,236.4z"/>
	<path class="st1" d="M946,243.8c0,0.2,0.2,0.3,0.4,0.3h0.1l17.8-3.7c0.2,0,0.4-0.3,0.3-0.5c0-0.2-0.3-0.4-0.5-0.3l-17.8,3.7
		C946.1,243.3,945.9,243.6,946,243.8z"/>
	<path class="st1" d="M951.4,252.9c0,0.2,0.2,0.4,0.4,0.4l13.4,0.6l0,0c0.2,0,0.4-0.2,0.4-0.4s-0.2-0.4-0.4-0.4l-13.4-0.6
		C951.6,252.5,951.4,252.7,951.4,252.9z"/>
	<path class="st1" d="M953,271.5l-12.7-9.5c-0.2-0.1-0.5-0.1-0.6,0.1s-0.1,0.5,0.1,0.6l12.7,9.5c0.1,0.1,0.2,0.1,0.3,0.1
		s0.3-0.1,0.3-0.2C953.3,271.9,953.2,271.6,953,271.5z"/>
	<path class="st1" d="M934.1,268.1c-0.1-0.2-0.4-0.2-0.6-0.1c-0.2,0.1-0.2,0.4-0.1,0.6l16.5,20c0.1,0.1,0.2,0.2,0.3,0.2
		s0.2,0,0.3-0.1c0.2-0.2,0.2-0.4,0.1-0.6L934.1,268.1z"/>
	<path class="st1" d="M929.2,274c-0.1-0.2-0.4-0.3-0.6-0.2s-0.3,0.4-0.2,0.6l5,8.8c0.1,0.1,0.2,0.2,0.4,0.2c0.1,0,0.1,0,0.2-0.1
		c0.2-0.1,0.3-0.4,0.2-0.6L929.2,274z"/>
	<path class="st1" d="M921.3,277.5c-0.2,0-0.4,0.2-0.4,0.4v18.5c0,0.2,0.2,0.4,0.4,0.4s0.4-0.2,0.4-0.4v-18.5
		C921.7,277.7,921.5,277.5,921.3,277.5z"/>
	<path class="st1" d="M915.3,271.2c-0.2-0.1-0.5-0.1-0.6,0.1l-12.3,18c-0.1,0.2-0.1,0.5,0.1,0.6c0.1,0.1,0.2,0.1,0.2,0.1
		c0.1,0,0.3-0.1,0.4-0.2l12.4-18C915.6,271.6,915.5,271.3,915.3,271.2z"/>
	<path class="st1" d="M908.4,263.2c-0.1-0.2-0.4-0.2-0.6-0.1L887.6,278c-0.2,0.1-0.2,0.4-0.1,0.6c0.1,0.1,0.2,0.2,0.3,0.2
		s0.2,0,0.3-0.1l20.2-14.9C908.5,263.7,908.5,263.4,908.4,263.2z"/>
	<path class="st1" d="M895.7,254c0-0.2-0.3-0.4-0.5-0.4l-11.4,1.8c-0.2,0-0.4,0.3-0.4,0.5s0.2,0.4,0.4,0.4c0,0,0,0,0.1,0l11.4-1.9
		C895.6,254.5,895.8,254.3,895.7,254z"/>
	<path class="st1" d="M897.9,244.1c0.2,0,0.3-0.1,0.4-0.3c0.1-0.2,0-0.5-0.3-0.5l-19.4-6.7c-0.2-0.1-0.5,0-0.5,0.3
		c-0.1,0.2,0,0.5,0.3,0.5L897.9,244.1C897.8,244.1,897.9,244.1,897.9,244.1z"/>
	<path class="st1" d="M905.4,238.2c0.1,0.1,0.2,0.1,0.3,0.1s0.2-0.1,0.3-0.2c0.2-0.2,0.1-0.4,0-0.6l-10.6-9.3
		c-0.2-0.2-0.4-0.1-0.6,0c-0.2,0.2-0.1,0.5,0,0.6L905.4,238.2z"/>
	<path class="st1" d="M911.2,234c0.1,0.1,0.2,0.1,0.3,0.1s0.2,0,0.3-0.1c0.2-0.2,0.2-0.4,0-0.6l-15.9-18.5c-0.2-0.2-0.4-0.2-0.6,0
		c-0.2,0.1-0.2,0.4,0,0.6L911.2,234z"/>
	<path class="st1" d="M893.5,264.1l-5.2,2.4c-0.2,0.1-0.3,0.3-0.2,0.6c0.1,0.2,0.2,0.3,0.4,0.3c0.1,0,0.1,0,0.2,0l5.2-2.4
		c0.2-0.1,0.3-0.4,0.2-0.6C894,264.1,893.7,264,893.5,264.1z"/>
	<path class="st1" d="M898.5,262.2c0.1,0.2,0.2,0.3,0.4,0.3c0.1,0,0.1,0,0.2,0l3.3-1.5c0.2-0.1,0.3-0.4,0.2-0.6s-0.4-0.3-0.6-0.2
		l-3.3,1.5C898.5,261.7,898.4,262,898.5,262.2z"/>
	<path class="st1" d="M965.4,265.7l-3.8-1.8c-0.2-0.1-0.5,0-0.6,0.2s0,0.5,0.2,0.6l3.9,1.8c0.1,0,0.1,0,0.2,0c0.2,0,0.3-0.1,0.4-0.2
		C965.7,266.1,965.6,265.8,965.4,265.7z"/>
	<path class="st1" d="M955.2,260.9l-7.6-3.6c-0.2-0.1-0.5,0-0.6,0.2s0,0.5,0.2,0.6l7.6,3.6c0.1,0,0.1,0,0.2,0c0.2,0,0.3-0.1,0.4-0.2
		C955.5,261.2,955.4,261,955.2,260.9z"/>
	<path class="st1" d="M948.2,214.8c0.1,0,0.3-0.1,0.3-0.2l2.1-2.6c0.1-0.2,0.1-0.4-0.1-0.6c-0.2-0.1-0.5-0.1-0.6,0.1l-2.1,2.6
		c-0.2,0.2-0.1,0.4,0.1,0.6C948.1,214.8,948.2,214.8,948.2,214.8z"/>
	<path class="st1" d="M933.5,232.3c0.1,0.1,0.2,0.1,0.3,0.1s0.3,0,0.3-0.2l11.1-13.6c0.2-0.2,0.1-0.4-0.1-0.6
		c-0.2-0.2-0.4-0.1-0.6,0.1l-11.1,13.6C933.3,231.9,933.3,232.2,933.5,232.3z"/>
</g>
<g class="st0">
	<path class="st1" d="M1560.1,617.6c0.2,0,0.4-0.2,0.4-0.4s-0.2-0.4-0.4-0.4c-8-1.4-12.6-2.6-15.5-5.5s-4.1-7.5-5.5-15.5
		c0-0.2-0.2-0.4-0.4-0.4c-0.2,0-0.4,0.1-0.4,0.4c-1.4,8-2.6,12.6-5.4,15.5s-7.5,4.1-15.5,5.5c-0.2,0-0.4,0.2-0.4,0.4
		s0.1,0.4,0.3,0.4c15.5,2.9,18.2,4.6,20.9,20.9c0,0.2,0.2,0.4,0.4,0.4c0.2,0,0.4-0.2,0.4-0.4c1.4-8,2.6-12.6,5.5-15.5
		C1547.5,620.2,1552.1,618.9,1560.1,617.6z M1538.7,636c-2.6-13.8-5.9-16.2-18.9-18.8c13.6-2.5,16.4-5.3,18.9-18.8
		c2.5,13.5,5.3,16.3,18.8,18.8C1544,619.7,1541.2,622.5,1538.7,636z"/>
	<path class="st1" d="M1529.5,593.8c0.1,0.2,0.2,0.2,0.4,0.2c0.1,0,0.1,0,0.2,0c0.2-0.1,0.3-0.4,0.2-0.6l-2.4-4.6
		c-0.1-0.2-0.4-0.3-0.6-0.2s-0.3,0.4-0.2,0.6L1529.5,593.8z"/>
	<path class="st1" d="M1524.8,584.7c0.1,0.2,0.2,0.2,0.4,0.2c0.1,0,0.1,0,0.2,0c0.2-0.1,0.3-0.4,0.2-0.6l-2.1-4.1
		c-0.1-0.2-0.4-0.3-0.6-0.2s-0.3,0.4-0.2,0.6L1524.8,584.7z"/>
	<path class="st1" d="M1537.8,589.4c0.2,0,0.4-0.2,0.4-0.4v-23.7c0-0.2-0.2-0.4-0.4-0.4s-0.4,0.2-0.4,0.4v23.6
		C1537.3,589.2,1537.5,589.4,1537.8,589.4z"/>
	<path class="st1" d="M1545.2,594.6c0.1,0,0.1,0,0.2,0c0.2,0,0.3-0.1,0.4-0.2l7.1-12.8c0.1-0.2,0-0.5-0.2-0.6s-0.5,0-0.6,0.2
		L1545,594C1545,594.2,1545,594.5,1545.2,594.6z"/>
	<path class="st1" d="M1555.7,604.4c0.1,0.1,0.2,0.2,0.3,0.2s0.2,0,0.3-0.1l14.1-10.5c0.2-0.1,0.2-0.4,0.1-0.6
		c-0.1-0.2-0.4-0.2-0.6-0.1l-14.1,10.5C1555.6,603.9,1555.6,604.2,1555.7,604.4z"/>
	<path class="st1" d="M1562,611.8c0,0.2,0.2,0.3,0.4,0.3h0.1l17.8-3.7c0.2,0,0.4-0.3,0.3-0.5s-0.3-0.4-0.5-0.3l-17.8,3.7
		C1562.1,611.3,1561.9,611.6,1562,611.8z"/>
	<path class="st1" d="M1567.4,620.9c0,0.2,0.2,0.4,0.4,0.4l13.4,0.6l0,0c0.2,0,0.4-0.2,0.4-0.4s-0.2-0.4-0.4-0.4l-13.4-0.6
		C1567.6,620.5,1567.4,620.7,1567.4,620.9z"/>
	<path class="st1" d="M1569,639.5l-12.7-9.5c-0.2-0.1-0.5-0.1-0.6,0.1c-0.1,0.2-0.1,0.5,0.1,0.6l12.7,9.5c0.1,0.1,0.2,0.1,0.3,0.1
		s0.3-0.1,0.3-0.2C1569.3,639.9,1569.2,639.6,1569,639.5z"/>
	<path class="st1" d="M1550.1,636.1c-0.2-0.2-0.4-0.2-0.6-0.1c-0.2,0.2-0.2,0.4-0.1,0.6l16.6,20c0.1,0.1,0.2,0.2,0.3,0.2
		s0.2,0,0.3-0.1c0.2-0.1,0.2-0.4,0.1-0.6L1550.1,636.1z"/>
	<path class="st1" d="M1545.2,642c-0.1-0.2-0.4-0.3-0.6-0.2s-0.3,0.4-0.2,0.6l5,8.8c0.1,0.1,0.2,0.2,0.4,0.2c0.1,0,0.1,0,0.2-0.1
		c0.2-0.1,0.3-0.4,0.2-0.6L1545.2,642z"/>
	<path class="st1" d="M1537.3,645.5c-0.2,0-0.4,0.2-0.4,0.4v18.5c0,0.2,0.2,0.4,0.4,0.4c0.2,0,0.4-0.2,0.4-0.4v-18.5
		C1537.7,645.7,1537.5,645.5,1537.3,645.5z"/>
	<path class="st1" d="M1531.3,639.2c-0.2-0.1-0.5-0.1-0.6,0.1l-12.4,18.1c-0.1,0.2-0.1,0.5,0.1,0.6c0.1,0,0.2,0.1,0.2,0.1
		c0.1,0,0.3-0.1,0.3-0.2l12.4-18C1531.6,639.6,1531.5,639.3,1531.3,639.2z"/>
	<path class="st1" d="M1524.4,631.2c-0.1-0.2-0.4-0.2-0.6-0.1l-20.2,14.9c-0.2,0.1-0.2,0.4-0.1,0.6c0.1,0.1,0.2,0.2,0.3,0.2
		s0.2,0,0.3-0.1l20.2-14.9C1524.5,631.7,1524.5,631.4,1524.4,631.2z"/>
	<path class="st1" d="M1511.7,622c0-0.2-0.3-0.4-0.5-0.4l-11.4,1.9c-0.2,0-0.4,0.3-0.3,0.5c0,0.2,0.2,0.4,0.4,0.4h0.1l11.4-1.8
		C1511.6,622.5,1511.8,622.3,1511.7,622z"/>
	<path class="st1" d="M1513.9,612.1c0.2,0,0.3-0.1,0.4-0.3s0-0.5-0.3-0.5l-19.4-6.7c-0.2-0.1-0.5,0-0.5,0.3c-0.1,0.2,0,0.5,0.3,0.5
		L1513.9,612.1L1513.9,612.1z"/>
	<path class="st1" d="M1521.4,606.2c0.1,0.1,0.2,0.1,0.3,0.1s0.2,0,0.3-0.1c0.2-0.2,0.1-0.5,0-0.6l-10.6-9.3c-0.2-0.2-0.5-0.1-0.6,0
		c-0.2,0.2-0.1,0.5,0,0.6L1521.4,606.2z"/>
	<path class="st1" d="M1527.2,602c0.1,0.1,0.2,0.1,0.3,0.1s0.2,0,0.3-0.1c0.2-0.2,0.2-0.4,0-0.6l-15.9-18.5c-0.2-0.2-0.4-0.2-0.6,0
		s-0.2,0.4,0,0.6L1527.2,602z"/>
	<path class="st1" d="M1509.5,632.1l-5.2,2.4c-0.2,0.1-0.3,0.4-0.2,0.6c0.1,0.2,0.2,0.3,0.4,0.3c0.1,0,0.1,0,0.2,0l5.2-2.4
		c0.2-0.1,0.3-0.4,0.2-0.6C1510,632.1,1509.7,632,1509.5,632.1z"/>
	<path class="st1" d="M1514.5,630.2c0.1,0.2,0.2,0.3,0.4,0.3c0.1,0,0.1,0,0.2,0l3.3-1.5c0.2-0.1,0.3-0.3,0.2-0.6
		c-0.1-0.2-0.3-0.3-0.6-0.2l-3.3,1.5C1514.5,629.7,1514.4,630,1514.5,630.2z"/>
	<path class="st1" d="M1581.4,633.7l-3.8-1.8c-0.2-0.1-0.5,0-0.6,0.2s0,0.5,0.2,0.6l3.8,1.8c0.1,0,0.1,0,0.2,0
		c0.2,0,0.3-0.1,0.4-0.2C1581.7,634.1,1581.6,633.8,1581.4,633.7z"/>
	<path class="st1" d="M1571.2,628.9l-7.6-3.6c-0.2-0.1-0.5,0-0.6,0.2s0,0.5,0.2,0.6l7.6,3.6c0.1,0,0.1,0,0.2,0
		c0.2,0,0.3-0.1,0.4-0.2C1571.5,629.2,1571.4,629,1571.2,628.9z"/>
	<path class="st1" d="M1564.2,582.8c0.1,0,0.3,0,0.3-0.2l2.1-2.6c0.2-0.2,0.1-0.5-0.1-0.6c-0.2-0.2-0.5-0.1-0.6,0.1l-2.1,2.6
		c-0.1,0.2-0.1,0.5,0.1,0.6C1564.1,582.8,1564.2,582.8,1564.2,582.8z"/>
	<path class="st1" d="M1549.5,600.3c0.1,0.1,0.2,0.1,0.3,0.1s0.3,0,0.3-0.2l11.1-13.6c0.1-0.2,0.1-0.5-0.1-0.6s-0.4-0.1-0.6,0.1
		l-11.1,13.6C1549.3,599.9,1549.3,600.2,1549.5,600.3z"/>
</g>
<g class="st0">
	<path class="st1" d="M1069.1,860.6c0.2,0,0.4-0.2,0.4-0.4s-0.2-0.4-0.4-0.4c-8-1.4-12.6-2.6-15.5-5.5s-4.1-7.5-5.5-15.5
		c0-0.2-0.2-0.4-0.4-0.4c-0.2,0-0.4,0.1-0.4,0.4c-1.4,8-2.6,12.6-5.4,15.5c-2.9,2.9-7.5,4.1-15.5,5.5c-0.2,0-0.3,0.2-0.4,0.4
		c0,0.2,0.1,0.4,0.4,0.4c15.5,2.9,18.2,4.6,20.9,20.9c0,0.2,0.2,0.4,0.4,0.4s0.4-0.2,0.4-0.4c1.4-8,2.6-12.6,5.5-15.5
		C1056.5,863.2,1061.1,861.9,1069.1,860.6z M1047.7,879c-2.6-13.8-5.9-16.2-18.9-18.8c13.6-2.5,16.4-5.3,18.9-18.8
		c2.5,13.5,5.3,16.3,18.8,18.8C1053,862.7,1050.2,865.5,1047.7,879z"/>
	<path class="st1" d="M1038.5,836.8c0.1,0.2,0.2,0.2,0.4,0.2c0.1,0,0.1,0,0.2,0c0.2-0.1,0.3-0.4,0.2-0.6l-2.4-4.6
		c-0.1-0.2-0.4-0.3-0.6-0.2s-0.3,0.4-0.2,0.6L1038.5,836.8z"/>
	<path class="st1" d="M1033.8,827.7c0.1,0.2,0.2,0.2,0.4,0.2c0.1,0,0.1,0,0.2,0c0.2-0.1,0.3-0.4,0.2-0.6l-2.1-4.1
		c-0.1-0.2-0.4-0.3-0.6-0.2s-0.3,0.4-0.2,0.6L1033.8,827.7z"/>
	<path class="st1" d="M1046.8,832.4c0.2,0,0.4-0.2,0.4-0.4v-23.7c0-0.2-0.2-0.4-0.4-0.4c-0.2,0-0.4,0.2-0.4,0.4v23.6
		C1046.3,832.2,1046.5,832.4,1046.8,832.4z"/>
	<path class="st1" d="M1054.2,837.6c0.1,0,0.1,0,0.2,0c0.2,0,0.3-0.1,0.4-0.2l7.1-12.8c0.1-0.2,0-0.5-0.2-0.6s-0.5,0-0.6,0.2
		L1054,837C1054,837.2,1054,837.5,1054.2,837.6z"/>
	<path class="st1" d="M1064.7,847.4c0.1,0.1,0.2,0.2,0.3,0.2s0.2,0,0.3-0.1l14.1-10.5c0.2-0.1,0.2-0.4,0.1-0.6
		c-0.1-0.2-0.4-0.2-0.6-0.1l-14.1,10.5C1064.6,846.9,1064.6,847.2,1064.7,847.4z"/>
	<path class="st1" d="M1071,854.8c0,0.2,0.2,0.3,0.4,0.3h0.1l17.8-3.7c0.2,0,0.4-0.3,0.3-0.5s-0.3-0.4-0.5-0.3l-17.8,3.7
		C1071.1,854.3,1070.9,854.6,1071,854.8z"/>
	<path class="st1" d="M1076.4,863.9c0,0.2,0.2,0.4,0.4,0.4l13.4,0.6l0,0c0.2,0,0.4-0.2,0.4-0.4s-0.2-0.4-0.4-0.4l-13.4-0.6
		C1076.6,863.5,1076.4,863.7,1076.4,863.9z"/>
	<path class="st1" d="M1078,882.5l-12.7-9.5c-0.2-0.1-0.5-0.1-0.6,0.1c-0.1,0.2-0.1,0.5,0.1,0.6l12.7,9.5c0.1,0.1,0.2,0.1,0.3,0.1
		s0.3-0.1,0.3-0.2C1078.3,882.9,1078.2,882.6,1078,882.5z"/>
	<path class="st1" d="M1059.1,879.1c-0.2-0.2-0.4-0.2-0.6-0.1c-0.2,0.2-0.2,0.4-0.1,0.6l16.6,20c0.1,0.1,0.2,0.2,0.3,0.2
		s0.2,0,0.3-0.1c0.2-0.1,0.2-0.4,0.1-0.6L1059.1,879.1z"/>
	<path class="st1" d="M1054.2,885c-0.1-0.2-0.4-0.3-0.6-0.2s-0.3,0.4-0.2,0.6l5,8.8c0.1,0.1,0.2,0.2,0.4,0.2c0.1,0,0.1,0,0.2-0.1
		c0.2-0.1,0.3-0.4,0.2-0.6L1054.2,885z"/>
	<path class="st1" d="M1046.3,888.5c-0.2,0-0.4,0.2-0.4,0.4v18.5c0,0.2,0.2,0.4,0.4,0.4c0.2,0,0.4-0.2,0.4-0.4v-18.5
		C1046.7,888.7,1046.5,888.5,1046.3,888.5z"/>
	<path class="st1" d="M1040.3,882.2c-0.2-0.1-0.5-0.1-0.6,0.1l-12.4,18.1c-0.1,0.2-0.1,0.5,0.1,0.6c0.1,0,0.2,0.1,0.2,0.1
		c0.1,0,0.3-0.1,0.4-0.2l12.4-18C1040.6,882.6,1040.5,882.3,1040.3,882.2z"/>
	<path class="st1" d="M1033.4,874.2c-0.1-0.2-0.4-0.2-0.6-0.1l-20.2,14.9c-0.2,0.1-0.2,0.4-0.1,0.6c0.1,0.1,0.2,0.2,0.3,0.2
		s0.2,0,0.3-0.1l20.2-14.9C1033.5,874.7,1033.5,874.4,1033.4,874.2z"/>
	<path class="st1" d="M1020.7,865c0-0.2-0.3-0.4-0.5-0.4l-11.4,1.9c-0.2,0-0.4,0.3-0.4,0.5s0.2,0.4,0.4,0.4c0,0,0,0,0.1,0l11.4-1.8
		C1020.6,865.5,1020.8,865.3,1020.7,865z"/>
	<path class="st1" d="M1022.9,855.1c0.2,0,0.3-0.1,0.4-0.3c0.1-0.2,0-0.5-0.3-0.5l-19.4-6.7c-0.2-0.1-0.5,0-0.5,0.3
		c-0.1,0.2,0,0.5,0.3,0.5L1022.9,855.1C1022.8,855.1,1022.9,855.1,1022.9,855.1z"/>
	<path class="st1" d="M1030.4,849.2c0.1,0.1,0.2,0.1,0.3,0.1c0.1,0,0.2,0,0.3-0.1c0.2-0.2,0.1-0.5,0-0.6l-10.6-9.3
		c-0.2-0.2-0.4-0.1-0.6,0c-0.2,0.2-0.1,0.5,0,0.6L1030.4,849.2z"/>
	<path class="st1" d="M1036.2,845c0.1,0.1,0.2,0.1,0.3,0.1s0.2,0,0.3-0.1c0.2-0.2,0.2-0.4,0-0.6l-15.9-18.5c-0.2-0.2-0.4-0.2-0.6,0
		c-0.2,0.2-0.2,0.4,0,0.6L1036.2,845z"/>
	<path class="st1" d="M1018.5,875.1l-5.2,2.4c-0.2,0.1-0.3,0.4-0.2,0.6c0.1,0.2,0.2,0.3,0.4,0.3c0.1,0,0.1,0,0.2,0l5.2-2.4
		c0.2-0.1,0.3-0.4,0.2-0.6C1019,875.1,1018.7,875,1018.5,875.1z"/>
	<path class="st1" d="M1023.5,873.2c0.1,0.2,0.2,0.3,0.4,0.3c0.1,0,0.1,0,0.2,0l3.3-1.5c0.2-0.1,0.3-0.3,0.2-0.6
		c-0.1-0.2-0.4-0.3-0.6-0.2l-3.3,1.5C1023.5,872.7,1023.4,873,1023.5,873.2z"/>
	<path class="st1" d="M1090.4,876.7l-3.8-1.8c-0.2-0.1-0.5,0-0.6,0.2s0,0.5,0.2,0.6l3.8,1.8c0.1,0,0.1,0,0.2,0
		c0.2,0,0.3-0.1,0.4-0.2C1090.7,877.1,1090.6,876.8,1090.4,876.7z"/>
	<path class="st1" d="M1080.2,871.9l-7.6-3.6c-0.2-0.1-0.5,0-0.6,0.2s0,0.5,0.2,0.6l7.6,3.6c0.1,0,0.1,0,0.2,0
		c0.2,0,0.3-0.1,0.4-0.2C1080.5,872.2,1080.4,872,1080.2,871.9z"/>
	<path class="st1" d="M1073.2,825.8c0.1,0,0.3,0,0.3-0.2l2.1-2.6c0.2-0.2,0.1-0.5-0.1-0.6c-0.2-0.2-0.5-0.1-0.6,0.1l-2.1,2.6
		c-0.1,0.2-0.1,0.5,0.1,0.6C1073.1,825.8,1073.2,825.8,1073.2,825.8z"/>
	<path class="st1" d="M1058.5,843.3c0.1,0.1,0.2,0.1,0.3,0.1s0.3,0,0.3-0.2l11.1-13.6c0.1-0.2,0.1-0.5-0.1-0.6s-0.4-0.1-0.6,0.1
		l-11.1,13.6C1058.3,842.9,1058.3,843.2,1058.5,843.3z"/>
</g>
<g class="st0">
	<path class="st1" d="M1615.1,258.6c0.2,0,0.4-0.2,0.4-0.4c0-0.2-0.2-0.4-0.4-0.4c-8-1.4-12.6-2.6-15.5-5.4
		c-2.9-2.9-4.1-7.5-5.5-15.5c0-0.2-0.2-0.4-0.4-0.4c-0.2,0-0.4,0.2-0.4,0.4c-1.4,8-2.6,12.6-5.4,15.5c-2.9,2.9-7.5,4.1-15.5,5.4
		c-0.2,0-0.4,0.2-0.4,0.4c0,0.2,0.1,0.4,0.3,0.4c15.5,2.9,18.2,4.6,20.9,20.9c0,0.2,0.2,0.4,0.4,0.4c0.2,0,0.4-0.2,0.4-0.4
		c1.4-8,2.6-12.6,5.5-15.5C1602.5,261.2,1607.1,259.9,1615.1,258.6z M1593.7,277c-2.6-13.8-5.9-16.2-18.9-18.8
		c13.6-2.5,16.4-5.3,18.9-18.9c2.5,13.5,5.3,16.3,18.8,18.8C1599,260.7,1596.2,263.5,1593.7,277z"/>
	<path class="st1" d="M1584.5,234.8c0.1,0.1,0.2,0.2,0.4,0.2c0.1,0,0.1,0,0.2-0.1c0.2-0.1,0.3-0.4,0.2-0.6l-2.4-4.6
		c-0.1-0.2-0.4-0.3-0.6-0.2s-0.3,0.4-0.2,0.6L1584.5,234.8z"/>
	<path class="st1" d="M1579.8,225.7c0.1,0.1,0.2,0.2,0.4,0.2c0.1,0,0.1,0,0.2-0.1c0.2-0.1,0.3-0.4,0.2-0.6l-2.1-4.1
		c-0.1-0.2-0.4-0.3-0.6-0.2s-0.3,0.4-0.2,0.6L1579.8,225.7z"/>
	<path class="st1" d="M1592.8,230.4c0.2,0,0.4-0.2,0.4-0.4v-23.7c0-0.2-0.2-0.4-0.4-0.4s-0.4,0.2-0.4,0.4v23.6
		C1592.3,230.2,1592.5,230.4,1592.8,230.4z"/>
	<path class="st1" d="M1600.2,235.6c0.1,0,0.1,0.1,0.2,0.1c0.2,0,0.3-0.1,0.4-0.2l7.1-12.8c0.1-0.2,0-0.5-0.2-0.6s-0.5,0-0.6,0.2
		l-7.1,12.8C1600,235.2,1600,235.5,1600.2,235.6z"/>
	<path class="st1" d="M1610.7,245.4c0.1,0.1,0.2,0.2,0.3,0.2s0.2,0,0.3-0.1l14.1-10.4c0.2-0.1,0.2-0.4,0.1-0.6
		c-0.1-0.2-0.4-0.2-0.6-0.1l-14.1,10.4C1610.6,244.9,1610.6,245.2,1610.7,245.4z"/>
	<path class="st1" d="M1617,252.8c0,0.2,0.2,0.3,0.4,0.3h0.1l17.8-3.7c0.2,0,0.4-0.3,0.3-0.5s-0.3-0.4-0.5-0.3l-17.8,3.7
		C1617.1,252.3,1616.9,252.6,1617,252.8z"/>
	<path class="st1" d="M1622.4,261.9c0,0.2,0.2,0.4,0.4,0.4l13.4,0.6l0,0c0.2,0,0.4-0.2,0.4-0.4c0-0.2-0.2-0.4-0.4-0.4l-13.4-0.6
		C1622.6,261.5,1622.4,261.7,1622.4,261.9z"/>
	<path class="st1" d="M1624,280.5l-12.7-9.5c-0.2-0.1-0.5-0.1-0.6,0.1s-0.1,0.5,0.1,0.6l12.7,9.5c0.1,0.1,0.2,0.1,0.3,0.1
		s0.3-0.1,0.3-0.2C1624.3,280.9,1624.2,280.6,1624,280.5z"/>
	<path class="st1" d="M1605.1,277.1c-0.2-0.2-0.4-0.2-0.6-0.1s-0.2,0.4-0.1,0.6l16.6,20c0.1,0.1,0.2,0.2,0.3,0.2s0.2,0,0.3-0.1
		c0.2-0.2,0.2-0.4,0.1-0.6L1605.1,277.1z"/>
	<path class="st1" d="M1600.2,283c-0.1-0.2-0.4-0.3-0.6-0.2c-0.2,0.1-0.3,0.4-0.2,0.6l5,8.8c0.1,0.1,0.2,0.2,0.4,0.2
		c0.1,0,0.1,0,0.2-0.1c0.2-0.1,0.3-0.4,0.2-0.6L1600.2,283z"/>
	<path class="st1" d="M1592.3,286.5c-0.2,0-0.4,0.2-0.4,0.4v18.5c0,0.2,0.2,0.4,0.4,0.4c0.2,0,0.4-0.2,0.4-0.4v-18.5
		C1592.7,286.7,1592.5,286.5,1592.3,286.5z"/>
	<path class="st1" d="M1586.3,280.2c-0.2-0.1-0.5-0.1-0.6,0.1l-12.4,18.1c-0.1,0.2-0.1,0.5,0.1,0.6c0.1,0.1,0.2,0.1,0.2,0.1
		c0.1,0,0.3-0.1,0.3-0.2l12.4-18C1586.6,280.6,1586.5,280.3,1586.3,280.2z"/>
	<path class="st1" d="M1579.4,272.2c-0.1-0.2-0.4-0.2-0.6-0.1l-20.2,14.9c-0.2,0.1-0.2,0.4-0.1,0.6c0.1,0.1,0.2,0.2,0.3,0.2
		s0.2,0,0.3-0.1l20.2-14.9C1579.5,272.7,1579.5,272.4,1579.4,272.2z"/>
	<path class="st1" d="M1566.7,263c0-0.2-0.3-0.4-0.5-0.3l-11.4,1.8c-0.2,0-0.4,0.3-0.3,0.5c0,0.2,0.2,0.4,0.4,0.4h0.1l11.4-1.9
		C1566.6,263.5,1566.8,263.3,1566.7,263z"/>
	<path class="st1" d="M1568.9,253.1c0.2,0,0.3-0.1,0.4-0.3s0-0.5-0.3-0.5l-19.4-6.7c-0.2-0.1-0.5,0-0.5,0.3c-0.1,0.2,0,0.5,0.3,0.5
		L1568.9,253.1L1568.9,253.1z"/>
	<path class="st1" d="M1576.4,247.2c0.1,0.1,0.2,0.1,0.3,0.1s0.2-0.1,0.3-0.2c0.2-0.2,0.1-0.4,0-0.6l-10.6-9.3
		c-0.2-0.2-0.5-0.1-0.6,0c-0.2,0.2-0.1,0.5,0,0.6L1576.4,247.2z"/>
	<path class="st1" d="M1582.2,243c0.1,0.1,0.2,0.1,0.3,0.1s0.2,0,0.3-0.1c0.2-0.2,0.2-0.4,0-0.6l-15.9-18.5c-0.2-0.2-0.4-0.2-0.6,0
		c-0.2,0.1-0.2,0.4,0,0.6L1582.2,243z"/>
	<path class="st1" d="M1564.5,273.1l-5.2,2.4c-0.2,0.1-0.3,0.3-0.2,0.6c0.1,0.2,0.2,0.3,0.4,0.3c0.1,0,0.1,0,0.2,0l5.2-2.4
		c0.2-0.1,0.3-0.4,0.2-0.6C1565,273.1,1564.7,273,1564.5,273.1z"/>
	<path class="st1" d="M1569.5,271.2c0.1,0.2,0.2,0.3,0.4,0.3c0.1,0,0.1,0,0.2,0l3.3-1.5c0.2-0.1,0.3-0.4,0.2-0.6s-0.3-0.3-0.6-0.2
		l-3.3,1.5C1569.5,270.7,1569.4,271,1569.5,271.2z"/>
	<path class="st1" d="M1636.4,274.7l-3.8-1.8c-0.2-0.1-0.5,0-0.6,0.2s0,0.5,0.2,0.6l3.8,1.8c0.1,0,0.1,0,0.2,0
		c0.2,0,0.3-0.1,0.4-0.2C1636.7,275.1,1636.6,274.8,1636.4,274.7z"/>
	<path class="st1" d="M1626.2,269.9l-7.6-3.6c-0.2-0.1-0.5,0-0.6,0.2s0,0.5,0.2,0.6l7.6,3.6c0.1,0,0.1,0,0.2,0
		c0.2,0,0.3-0.1,0.4-0.2C1626.5,270.2,1626.4,270,1626.2,269.9z"/>
	<path class="st1" d="M1619.2,223.8c0.1,0,0.3-0.1,0.3-0.2l2.1-2.6c0.2-0.2,0.1-0.4-0.1-0.6c-0.2-0.1-0.5-0.1-0.6,0.1l-2.1,2.6
		c-0.1,0.2-0.1,0.4,0.1,0.6C1619.1,223.8,1619.2,223.8,1619.2,223.8z"/>
	<path class="st1" d="M1604.5,241.3c0.1,0.1,0.2,0.1,0.3,0.1s0.3,0,0.3-0.2l11.1-13.6c0.1-0.2,0.1-0.4-0.1-0.6
		c-0.2-0.2-0.4-0.1-0.6,0.1l-11.1,13.6C1604.3,240.9,1604.3,241.2,1604.5,241.3z"/>
</g>
<g class="st0">
	<path class="st1" d="M207.2,684.5c0.2,0,0.4-0.2,0.4-0.4s-0.2-0.4-0.4-0.4c-8-1.4-12.6-2.6-15.5-5.5s-4.1-7.5-5.5-15.5
		c0-0.2-0.2-0.4-0.4-0.4s-0.4,0.1-0.4,0.4c-1.4,8-2.6,12.6-5.4,15.5s-7.5,4.1-15.5,5.5c-0.2,0-0.4,0.2-0.4,0.4s0.1,0.4,0.3,0.4
		c15.5,2.9,18.2,4.6,20.9,20.9c0,0.2,0.2,0.4,0.4,0.4s0.4-0.2,0.4-0.4c1.4-8,2.6-12.6,5.5-15.5C194.6,687.1,199.2,685.8,207.2,684.5
		z M185.8,702.9c-2.6-13.8-5.9-16.2-18.9-18.8c13.6-2.5,16.4-5.3,18.9-18.8c2.5,13.5,5.3,16.3,18.8,18.8
		C191.1,686.6,188.3,689.4,185.8,702.9z"/>
	<path class="st1" d="M176.6,660.7c0.1,0.2,0.2,0.2,0.4,0.2c0.1,0,0.1,0,0.2,0c0.2-0.1,0.3-0.4,0.2-0.6l-2.4-4.6
		c-0.1-0.2-0.4-0.3-0.6-0.2s-0.3,0.4-0.2,0.6L176.6,660.7z"/>
	<path class="st1" d="M171.9,651.6c0.1,0.2,0.2,0.2,0.4,0.2c0.1,0,0.1,0,0.2,0c0.2-0.1,0.3-0.4,0.2-0.6l-2.1-4.1
		c-0.1-0.2-0.4-0.3-0.6-0.2s-0.3,0.4-0.2,0.6L171.9,651.6z"/>
	<path class="st1" d="M184.9,656.3c0.2,0,0.4-0.2,0.4-0.4v-23.7c0-0.2-0.2-0.4-0.4-0.4s-0.4,0.2-0.4,0.4v23.6
		C184.4,656.1,184.6,656.3,184.9,656.3z"/>
	<path class="st1" d="M192.3,661.5c0.1,0,0.1,0,0.2,0c0.2,0,0.3-0.1,0.4-0.2l7.1-12.8c0.1-0.2,0-0.5-0.2-0.6s-0.5,0-0.6,0.2
		l-7.1,12.8C192.1,661.1,192.1,661.4,192.3,661.5z"/>
	<path class="st1" d="M202.8,671.3c0.1,0.1,0.2,0.2,0.3,0.2s0.2,0,0.3-0.1l14.1-10.5c0.2-0.1,0.2-0.4,0.1-0.6
		c-0.1-0.2-0.4-0.2-0.6-0.1l-14.1,10.5C202.7,670.8,202.7,671.1,202.8,671.3z"/>
	<path class="st1" d="M209.1,678.7c0,0.2,0.2,0.3,0.4,0.3h0.1l17.8-3.7c0.2,0,0.4-0.3,0.3-0.5s-0.3-0.4-0.5-0.3l-17.8,3.7
		C209.2,678.2,209,678.5,209.1,678.7z"/>
	<path class="st1" d="M214.5,687.8c0,0.2,0.2,0.4,0.4,0.4l13.4,0.6l0,0c0.2,0,0.4-0.2,0.4-0.4s-0.2-0.4-0.4-0.4l-13.4-0.6
		C214.7,687.4,214.5,687.6,214.5,687.8z"/>
	<path class="st1" d="M216.1,706.4l-12.7-9.5c-0.2-0.1-0.5-0.1-0.6,0.1s-0.1,0.5,0.1,0.6l12.7,9.5c0.1,0.1,0.2,0.1,0.3,0.1
		s0.3-0.1,0.3-0.2C216.4,706.8,216.3,706.5,216.1,706.4z"/>
	<path class="st1" d="M197.2,703c-0.2-0.2-0.4-0.2-0.6-0.1c-0.2,0.2-0.2,0.4-0.1,0.6l16.6,20c0.1,0.1,0.2,0.2,0.3,0.2s0.2,0,0.3-0.1
		c0.2-0.1,0.2-0.4,0.1-0.6L197.2,703z"/>
	<path class="st1" d="M192.3,708.9c-0.1-0.2-0.4-0.3-0.6-0.2s-0.3,0.4-0.2,0.6l5,8.8c0.1,0.1,0.2,0.2,0.4,0.2c0.1,0,0.1,0,0.2-0.1
		c0.2-0.1,0.3-0.4,0.2-0.6L192.3,708.9z"/>
	<path class="st1" d="M184.4,712.4c-0.2,0-0.4,0.2-0.4,0.4v18.5c0,0.2,0.2,0.4,0.4,0.4s0.4-0.2,0.4-0.4v-18.5
		C184.8,712.6,184.6,712.4,184.4,712.4z"/>
	<path class="st1" d="M178.4,706.1c-0.2-0.1-0.5-0.1-0.6,0.1l-12.4,18.1c-0.1,0.2-0.1,0.5,0.1,0.6c0.1,0,0.2,0.1,0.2,0.1
		c0.1,0,0.3-0.1,0.3-0.2l12.4-18C178.7,706.5,178.6,706.2,178.4,706.1z"/>
	<path class="st1" d="M171.5,698.1c-0.1-0.2-0.4-0.2-0.6-0.1l-20.2,14.9c-0.2,0.1-0.2,0.4-0.1,0.6c0.1,0.1,0.2,0.2,0.3,0.2
		s0.2,0,0.3-0.1l20.2-14.9C171.6,698.6,171.6,698.3,171.5,698.1z"/>
	<path class="st1" d="M158.8,688.9c0-0.2-0.3-0.4-0.5-0.4l-11.4,1.9c-0.2,0-0.4,0.3-0.3,0.5c0,0.2,0.2,0.4,0.4,0.4h0.1l11.4-1.8
		C158.7,689.4,158.9,689.2,158.8,688.9z"/>
	<path class="st1" d="M161,679c0.2,0,0.3-0.1,0.4-0.3s0-0.5-0.3-0.5l-19.4-6.7c-0.2-0.1-0.5,0-0.5,0.3c-0.1,0.2,0,0.5,0.3,0.5
		L161,679L161,679z"/>
	<path class="st1" d="M168.5,673.1c0.1,0.1,0.2,0.1,0.3,0.1s0.2,0,0.3-0.1c0.2-0.2,0.1-0.5,0-0.6l-10.6-9.3c-0.2-0.2-0.5-0.1-0.6,0
		c-0.2,0.2-0.1,0.5,0,0.6L168.5,673.1z"/>
	<path class="st1" d="M174.3,668.9c0.1,0.1,0.2,0.1,0.3,0.1s0.2,0,0.3-0.1c0.2-0.2,0.2-0.4,0-0.6L159,649.8c-0.2-0.2-0.4-0.2-0.6,0
		s-0.2,0.4,0,0.6L174.3,668.9z"/>
	<path class="st1" d="M156.6,699l-5.2,2.4c-0.2,0.1-0.3,0.4-0.2,0.6c0.1,0.2,0.2,0.3,0.4,0.3c0.1,0,0.1,0,0.2,0l5.2-2.4
		c0.2-0.1,0.3-0.4,0.2-0.6C157.1,699,156.8,698.9,156.6,699z"/>
	<path class="st1" d="M161.6,697.1c0.1,0.2,0.2,0.3,0.4,0.3c0.1,0,0.1,0,0.2,0l3.3-1.5c0.2-0.1,0.3-0.3,0.2-0.6
		c-0.1-0.2-0.3-0.3-0.6-0.2l-3.3,1.5C161.6,696.6,161.5,696.9,161.6,697.1z"/>
	<path class="st1" d="M228.5,700.6l-3.8-1.8c-0.2-0.1-0.5,0-0.6,0.2s0,0.5,0.2,0.6l3.8,1.8c0.1,0,0.1,0,0.2,0c0.2,0,0.3-0.1,0.4-0.2
		C228.8,701,228.7,700.7,228.5,700.6z"/>
	<path class="st1" d="M218.3,695.8l-7.6-3.6c-0.2-0.1-0.5,0-0.6,0.2s0,0.5,0.2,0.6l7.6,3.6c0.1,0,0.1,0,0.2,0c0.2,0,0.3-0.1,0.4-0.2
		C218.6,696.1,218.5,695.9,218.3,695.8z"/>
	<path class="st1" d="M211.3,649.7c0.1,0,0.3,0,0.3-0.2l2.1-2.6c0.2-0.2,0.1-0.5-0.1-0.6c-0.2-0.2-0.5-0.1-0.6,0.1l-2.1,2.6
		c-0.1,0.2-0.1,0.5,0.1,0.6C211.2,649.7,211.3,649.7,211.3,649.7z"/>
	<path class="st1" d="M196.6,667.2c0.1,0.1,0.2,0.1,0.3,0.1s0.3,0,0.3-0.2l11.1-13.6c0.1-0.2,0.1-0.5-0.1-0.6s-0.4-0.1-0.6,0.1
		l-11.1,13.6C196.4,666.8,196.4,667.1,196.6,667.2z"/>
</g>
<g class="st0">
	<path class="st1" d="M331.2,435.5c0.2,0,0.4-0.2,0.4-0.4c0-0.2-0.2-0.4-0.4-0.4c-8-1.4-12.6-2.6-15.5-5.5s-4.1-7.5-5.5-15.5
		c0-0.2-0.2-0.4-0.4-0.4c-0.2,0-0.4,0.1-0.4,0.4c-1.4,8-2.6,12.6-5.4,15.5c-2.9,2.9-7.5,4.1-15.5,5.5c-0.2,0-0.4,0.2-0.4,0.4
		c0,0.2,0.1,0.4,0.3,0.4c15.5,2.9,18.2,4.6,20.9,20.9c0,0.2,0.2,0.4,0.4,0.4c0.2,0,0.4-0.2,0.4-0.4c1.4-8,2.6-12.6,5.5-15.5
		C318.6,438.1,323.2,436.8,331.2,435.5z M309.8,453.9c-2.6-13.8-5.9-16.2-18.9-18.8c13.6-2.5,16.4-5.3,18.9-18.9
		c2.5,13.5,5.3,16.3,18.8,18.8C315.1,437.6,312.3,440.4,309.8,453.9z"/>
	<path class="st1" d="M300.6,411.7c0.1,0.1,0.2,0.2,0.4,0.2c0.1,0,0.1,0,0.2,0c0.2-0.1,0.3-0.4,0.2-0.6l-2.4-4.6
		c-0.1-0.2-0.4-0.3-0.6-0.2c-0.2,0.1-0.3,0.4-0.2,0.6L300.6,411.7z"/>
	<path class="st1" d="M295.9,402.6c0.1,0.1,0.2,0.2,0.4,0.2c0.1,0,0.1,0,0.2-0.1c0.2-0.1,0.3-0.4,0.2-0.6l-2.1-4.1
		c-0.1-0.2-0.4-0.3-0.6-0.2c-0.2,0.1-0.3,0.4-0.2,0.6L295.9,402.6z"/>
	<path class="st1" d="M308.9,407.3c0.2,0,0.4-0.2,0.4-0.4v-23.7c0-0.2-0.2-0.4-0.4-0.4c-0.2,0-0.4,0.2-0.4,0.4v23.6
		C308.4,407.1,308.6,407.3,308.9,407.3z"/>
	<path class="st1" d="M316.3,412.5c0.1,0,0.1,0.1,0.2,0.1c0.2,0,0.3-0.1,0.4-0.2l7.1-12.8c0.1-0.2,0-0.5-0.2-0.6s-0.5,0-0.6,0.2
		l-7.1,12.8C316.1,412.1,316.1,412.4,316.3,412.5z"/>
	<path class="st1" d="M326.8,422.3c0.1,0.1,0.2,0.2,0.3,0.2c0.1,0,0.2,0,0.3-0.1l14.1-10.4c0.2-0.1,0.2-0.4,0.1-0.6
		s-0.4-0.2-0.6-0.1l-14.1,10.5C326.7,421.8,326.7,422.1,326.8,422.3z"/>
	<path class="st1" d="M333.1,429.7c0,0.2,0.2,0.3,0.4,0.3h0.1l17.8-3.7c0.2-0.1,0.4-0.3,0.3-0.5s-0.3-0.4-0.5-0.3l-17.8,3.7
		C333.2,429.2,333,429.5,333.1,429.7z"/>
	<path class="st1" d="M338.5,438.8c0,0.2,0.2,0.4,0.4,0.4l13.4,0.6l0,0c0.2,0,0.4-0.2,0.4-0.4c0-0.2-0.2-0.4-0.4-0.4l-13.4-0.6
		C338.7,438.4,338.5,438.6,338.5,438.8z"/>
	<path class="st1" d="M340.1,457.4l-12.7-9.5c-0.2-0.1-0.5-0.1-0.6,0.1s-0.1,0.5,0.1,0.6l12.7,9.5c0.1,0.1,0.2,0.1,0.3,0.1
		c0.1,0,0.3-0.1,0.3-0.2C340.4,457.8,340.3,457.5,340.1,457.4z"/>
	<path class="st1" d="M321.2,454c-0.2-0.2-0.4-0.2-0.6-0.1s-0.2,0.4-0.1,0.6l16.6,20c0.1,0.1,0.2,0.2,0.3,0.2c0.1,0,0.2,0,0.3-0.1
		c0.2-0.2,0.2-0.4,0.1-0.6L321.2,454z"/>
	<path class="st1" d="M316.3,459.9c-0.1-0.2-0.4-0.3-0.6-0.2c-0.2,0.1-0.3,0.4-0.2,0.6l5,8.8c0.1,0.1,0.2,0.2,0.4,0.2
		c0.1,0,0.1,0,0.2-0.1c0.2-0.1,0.3-0.4,0.2-0.6L316.3,459.9z"/>
	<path class="st1" d="M308.4,463.4c-0.2,0-0.4,0.2-0.4,0.4v18.5c0,0.2,0.2,0.4,0.4,0.4s0.4-0.2,0.4-0.4v-18.5
		C308.8,463.6,308.6,463.4,308.4,463.4z"/>
	<path class="st1" d="M302.4,457.1c-0.2-0.1-0.5-0.1-0.6,0.1l-12.4,18.1c-0.1,0.2-0.1,0.5,0.1,0.6c0.1,0.1,0.2,0.1,0.2,0.1
		c0.1,0,0.3-0.1,0.3-0.2l12.4-18C302.7,457.5,302.6,457.2,302.4,457.1z"/>
	<path class="st1" d="M295.5,449.1c-0.1-0.2-0.4-0.2-0.6-0.1l-20.2,14.9c-0.2,0.1-0.2,0.4-0.1,0.6c0.1,0.1,0.2,0.2,0.3,0.2
		c0.1,0,0.2,0,0.3-0.1l20.2-14.9C295.6,449.6,295.6,449.3,295.5,449.1z"/>
	<path class="st1" d="M282.8,439.9c0-0.2-0.3-0.4-0.5-0.3l-11.4,1.8c-0.2,0-0.4,0.3-0.3,0.5c0,0.2,0.2,0.4,0.4,0.4h0.1l11.4-1.9
		C282.7,440.4,282.9,440.2,282.8,439.9z"/>
	<path class="st1" d="M285,430c0.2,0,0.3-0.1,0.4-0.3c0.1-0.2,0-0.5-0.3-0.5l-19.4-6.7c-0.2-0.1-0.5,0-0.5,0.3
		c-0.1,0.2,0,0.5,0.3,0.5L285,430L285,430z"/>
	<path class="st1" d="M292.5,424.1c0.1,0.1,0.2,0.1,0.3,0.1c0.1,0,0.2-0.1,0.3-0.1c0.2-0.2,0.1-0.5,0-0.6l-10.6-9.3
		c-0.2-0.2-0.5-0.1-0.6,0c-0.2,0.2-0.1,0.5,0,0.6L292.5,424.1z"/>
	<path class="st1" d="M298.3,419.9c0.1,0.1,0.2,0.2,0.3,0.2c0.1,0,0.2,0,0.3-0.1c0.2-0.1,0.2-0.4,0-0.6L283,400.9
		c-0.2-0.2-0.4-0.2-0.6,0s-0.2,0.4,0,0.6L298.3,419.9z"/>
	<path class="st1" d="M280.6,450l-5.2,2.4c-0.2,0.1-0.3,0.3-0.2,0.6c0.1,0.2,0.2,0.3,0.4,0.3c0.1,0,0.1,0,0.2,0l5.2-2.4
		c0.2-0.1,0.3-0.4,0.2-0.6C281.1,450,280.8,449.9,280.6,450z"/>
	<path class="st1" d="M285.6,448.1c0.1,0.2,0.2,0.3,0.4,0.3c0.1,0,0.1,0,0.2,0l3.3-1.5c0.2-0.1,0.3-0.4,0.2-0.6
		c-0.1-0.2-0.3-0.3-0.6-0.2l-3.3,1.5C285.6,447.6,285.5,447.9,285.6,448.1z"/>
	<path class="st1" d="M352.5,451.6l-3.8-1.8c-0.2-0.1-0.5,0-0.6,0.2s0,0.5,0.2,0.6l3.8,1.8c0.1,0,0.1,0,0.2,0c0.2,0,0.3-0.1,0.4-0.2
		C352.8,452,352.7,451.7,352.5,451.6z"/>
	<path class="st1" d="M342.3,446.8l-7.6-3.6c-0.2-0.1-0.5,0-0.6,0.2s0,0.5,0.2,0.6l7.6,3.6c0.1,0,0.1,0,0.2,0c0.2,0,0.3-0.1,0.4-0.2
		C342.6,447.1,342.5,446.9,342.3,446.8z"/>
	<path class="st1" d="M335.3,400.7c0.1,0,0.3,0,0.3-0.2l2.1-2.6c0.2-0.2,0.1-0.5-0.1-0.6s-0.5-0.1-0.6,0.1l-2.1,2.6
		c-0.1,0.2-0.1,0.5,0.1,0.6S335.3,400.7,335.3,400.7z"/>
	<path class="st1" d="M320.6,418.2c0.1,0.1,0.2,0.1,0.3,0.1c0.1,0,0.3,0,0.3-0.2l11.1-13.6c0.1-0.2,0.1-0.5-0.1-0.6
		s-0.4-0.1-0.6,0.1l-11.1,13.6C320.4,417.8,320.4,418.1,320.6,418.2z"/>
</g>
<g class="st0">
	<path class="st1" d="M925.2,496.5c0.2,0,0.4-0.2,0.4-0.4c0-0.2-0.2-0.4-0.4-0.4c-8-1.4-12.6-2.6-15.5-5.5s-4.1-7.5-5.5-15.5
		c0-0.2-0.2-0.4-0.4-0.4s-0.4,0.1-0.4,0.4c-1.4,8-2.6,12.6-5.4,15.5c-2.9,2.9-7.5,4.1-15.5,5.5c-0.2,0-0.4,0.2-0.4,0.4
		c0,0.2,0.1,0.4,0.3,0.4c15.5,2.9,18.2,4.6,20.9,20.9c0,0.2,0.2,0.4,0.4,0.4s0.4-0.2,0.4-0.4c1.4-8,2.6-12.6,5.5-15.5
		C912.6,499.1,917.2,497.8,925.2,496.5z M903.8,514.9c-2.6-13.8-5.9-16.2-18.9-18.8c13.6-2.5,16.4-5.3,18.9-18.9
		c2.5,13.5,5.3,16.3,18.8,18.8C909.1,498.6,906.3,501.4,903.8,514.9z"/>
	<path class="st1" d="M894.6,472.7c0.1,0.1,0.2,0.2,0.4,0.2c0.1,0,0.1,0,0.2,0c0.2-0.1,0.3-0.4,0.2-0.6l-2.4-4.6
		c-0.1-0.2-0.4-0.3-0.6-0.2c-0.2,0.1-0.3,0.4-0.2,0.6L894.6,472.7z"/>
	<path class="st1" d="M889.9,463.6c0.1,0.1,0.2,0.2,0.4,0.2c0.1,0,0.1,0,0.2-0.1c0.2-0.1,0.3-0.4,0.2-0.6l-2.1-4.1
		c-0.1-0.2-0.4-0.3-0.6-0.2c-0.2,0.1-0.3,0.4-0.2,0.6L889.9,463.6z"/>
	<path class="st1" d="M902.9,468.3c0.2,0,0.4-0.2,0.4-0.4v-23.7c0-0.2-0.2-0.4-0.4-0.4s-0.4,0.2-0.4,0.4v23.6
		C902.4,468.1,902.6,468.3,902.9,468.3z"/>
	<path class="st1" d="M910.3,473.5c0.1,0,0.1,0.1,0.2,0.1c0.2,0,0.3-0.1,0.4-0.2l7.1-12.8c0.1-0.2,0-0.5-0.2-0.6s-0.5,0-0.6,0.2
		l-7.1,12.8C910.1,473.1,910.1,473.4,910.3,473.5z"/>
	<path class="st1" d="M920.8,483.3c0.1,0.1,0.2,0.2,0.3,0.2s0.2,0,0.3-0.1l14.1-10.4c0.2-0.1,0.2-0.4,0.1-0.6s-0.4-0.2-0.6-0.1
		l-14.1,10.5C920.7,482.8,920.7,483.1,920.8,483.3z"/>
	<path class="st1" d="M927.1,490.7c0,0.2,0.2,0.3,0.4,0.3h0.1l17.8-3.7c0.2-0.1,0.4-0.3,0.3-0.5s-0.3-0.4-0.5-0.3l-17.8,3.7
		C927.2,490.2,927,490.5,927.1,490.7z"/>
	<path class="st1" d="M932.5,499.8c0,0.2,0.2,0.4,0.4,0.4l13.4,0.6l0,0c0.2,0,0.4-0.2,0.4-0.4c0-0.2-0.2-0.4-0.4-0.4l-13.4-0.6
		C932.7,499.4,932.5,499.6,932.5,499.8z"/>
	<path class="st1" d="M934.1,518.4l-12.7-9.5c-0.2-0.1-0.5-0.1-0.6,0.1s-0.1,0.5,0.1,0.6l12.7,9.5c0.1,0.1,0.2,0.1,0.3,0.1
		s0.3-0.1,0.3-0.2C934.4,518.8,934.3,518.5,934.1,518.4z"/>
	<path class="st1" d="M915.2,515c-0.2-0.2-0.4-0.2-0.6-0.1c-0.2,0.1-0.2,0.4-0.1,0.6l16.6,20c0.1,0.1,0.2,0.2,0.3,0.2s0.2,0,0.3-0.1
		c0.2-0.2,0.2-0.4,0.1-0.6L915.2,515z"/>
	<path class="st1" d="M910.3,520.9c-0.1-0.2-0.4-0.3-0.6-0.2c-0.2,0.1-0.3,0.4-0.2,0.6l5,8.8c0.1,0.1,0.2,0.2,0.4,0.2
		c0.1,0,0.1,0,0.2-0.1c0.2-0.1,0.3-0.4,0.2-0.6L910.3,520.9z"/>
	<path class="st1" d="M902.4,524.4c-0.2,0-0.4,0.2-0.4,0.4v18.5c0,0.2,0.2,0.4,0.4,0.4s0.4-0.2,0.4-0.4v-18.5
		C902.8,524.6,902.6,524.4,902.4,524.4z"/>
	<path class="st1" d="M896.4,518.1c-0.2-0.1-0.5-0.1-0.6,0.1l-12.4,18.1c-0.1,0.2-0.1,0.5,0.1,0.6c0.1,0.1,0.2,0.1,0.2,0.1
		c0.1,0,0.3-0.1,0.3-0.2l12.4-18C896.7,518.5,896.6,518.2,896.4,518.1z"/>
	<path class="st1" d="M889.5,510.1c-0.1-0.2-0.4-0.2-0.6-0.1l-20.2,14.9c-0.2,0.1-0.2,0.4-0.1,0.6c0.1,0.1,0.2,0.2,0.3,0.2
		s0.2,0,0.3-0.1l20.2-14.9C889.6,510.6,889.6,510.3,889.5,510.1z"/>
	<path class="st1" d="M876.8,500.9c0-0.2-0.3-0.4-0.5-0.3l-11.4,1.8c-0.2,0-0.4,0.3-0.3,0.5c0,0.2,0.2,0.4,0.4,0.4h0.1l11.4-1.9
		C876.7,501.4,876.9,501.2,876.8,500.9z"/>
	<path class="st1" d="M879,491c0.2,0,0.3-0.1,0.4-0.3c0.1-0.2,0-0.5-0.3-0.5l-19.4-6.7c-0.2-0.1-0.5,0-0.5,0.3
		c-0.1,0.2,0,0.5,0.3,0.5L879,491L879,491z"/>
	<path class="st1" d="M886.5,485.1c0.1,0.1,0.2,0.1,0.3,0.1s0.2-0.1,0.3-0.1c0.2-0.2,0.1-0.5,0-0.6l-10.6-9.3
		c-0.2-0.2-0.5-0.1-0.6,0c-0.2,0.2-0.1,0.5,0,0.6L886.5,485.1z"/>
	<path class="st1" d="M892.3,480.9c0.1,0.1,0.2,0.2,0.3,0.2s0.2,0,0.3-0.1c0.2-0.1,0.2-0.4,0-0.6L877,461.9c-0.2-0.2-0.4-0.2-0.6,0
		s-0.2,0.4,0,0.6L892.3,480.9z"/>
	<path class="st1" d="M874.6,511l-5.2,2.4c-0.2,0.1-0.3,0.3-0.2,0.6c0.1,0.2,0.2,0.3,0.4,0.3c0.1,0,0.1,0,0.2,0l5.2-2.4
		c0.2-0.1,0.3-0.4,0.2-0.6C875.1,511,874.8,510.9,874.6,511z"/>
	<path class="st1" d="M879.6,509.1c0.1,0.2,0.2,0.3,0.4,0.3c0.1,0,0.1,0,0.2,0l3.3-1.5c0.2-0.1,0.3-0.4,0.2-0.6s-0.3-0.3-0.6-0.2
		l-3.3,1.5C879.6,508.6,879.5,508.9,879.6,509.1z"/>
	<path class="st1" d="M946.5,512.6l-3.8-1.8c-0.2-0.1-0.5,0-0.6,0.2s0,0.5,0.2,0.6l3.8,1.8c0.1,0,0.1,0,0.2,0c0.2,0,0.3-0.1,0.4-0.2
		C946.8,513,946.7,512.7,946.5,512.6z"/>
	<path class="st1" d="M936.3,507.8l-7.6-3.6c-0.2-0.1-0.5,0-0.6,0.2s0,0.5,0.2,0.6l7.6,3.6c0.1,0,0.1,0,0.2,0c0.2,0,0.3-0.1,0.4-0.2
		C936.6,508.1,936.5,507.9,936.3,507.8z"/>
	<path class="st1" d="M929.3,461.7c0.1,0,0.3,0,0.3-0.2l2.1-2.6c0.2-0.2,0.1-0.5-0.1-0.6s-0.5-0.1-0.6,0.1l-2.1,2.6
		c-0.1,0.2-0.1,0.5,0.1,0.6S929.3,461.7,929.3,461.7z"/>
	<path class="st1" d="M914.6,479.2c0.1,0.1,0.2,0.1,0.3,0.1s0.3,0,0.3-0.2l11.1-13.6c0.1-0.2,0.1-0.5-0.1-0.6s-0.4-0.1-0.6,0.1
		l-11.1,13.6C914.4,478.8,914.4,479.1,914.6,479.2z"/>
</g>
<g class="st0">
	<path class="st1" d="M567.2,971.5c0.2,0,0.4-0.2,0.4-0.4s-0.2-0.4-0.4-0.4c-8-1.4-12.6-2.6-15.5-5.5s-4.1-7.5-5.5-15.5
		c0-0.2-0.2-0.4-0.4-0.4s-0.4,0.1-0.4,0.4c-1.4,8-2.6,12.6-5.4,15.5s-7.5,4.1-15.5,5.5c-0.2,0-0.4,0.2-0.4,0.4s0.1,0.4,0.3,0.4
		c15.5,2.9,18.2,4.6,20.9,20.9c0,0.2,0.2,0.4,0.4,0.4s0.4-0.2,0.4-0.4c1.4-8,2.6-12.6,5.5-15.5C554.6,974.1,559.2,972.8,567.2,971.5
		z M545.8,989.9c-2.6-13.8-5.9-16.2-18.9-18.8c13.6-2.5,16.4-5.3,18.9-18.8c2.5,13.5,5.3,16.3,18.8,18.8
		C551.1,973.6,548.3,976.4,545.8,989.9z"/>
	<path class="st1" d="M536.6,947.7c0.1,0.2,0.2,0.2,0.4,0.2c0.1,0,0.1,0,0.2,0c0.2-0.1,0.3-0.4,0.2-0.6l-2.4-4.6
		c-0.1-0.2-0.4-0.3-0.6-0.2s-0.3,0.4-0.2,0.6L536.6,947.7z"/>
	<path class="st1" d="M531.9,938.6c0.1,0.2,0.2,0.2,0.4,0.2c0.1,0,0.1,0,0.2,0c0.2-0.1,0.3-0.4,0.2-0.6l-2.1-4.1
		c-0.1-0.2-0.4-0.3-0.6-0.2s-0.3,0.4-0.2,0.6L531.9,938.6z"/>
	<path class="st1" d="M544.9,943.3c0.2,0,0.4-0.2,0.4-0.4v-23.7c0-0.2-0.2-0.4-0.4-0.4s-0.4,0.2-0.4,0.4v23.6
		C544.4,943.1,544.6,943.3,544.9,943.3z"/>
	<path class="st1" d="M552.3,948.5c0.1,0,0.1,0,0.2,0c0.2,0,0.3-0.1,0.4-0.2l7.1-12.8c0.1-0.2,0-0.5-0.2-0.6s-0.5,0-0.6,0.2
		l-7.1,12.8C552.1,948.1,552.1,948.4,552.3,948.5z"/>
	<path class="st1" d="M562.8,958.3c0.1,0.1,0.2,0.2,0.3,0.2s0.2,0,0.3-0.1l14.1-10.5c0.2-0.1,0.2-0.4,0.1-0.6
		c-0.1-0.2-0.4-0.2-0.6-0.1l-14.1,10.5C562.7,957.8,562.7,958.1,562.8,958.3z"/>
	<path class="st1" d="M569.1,965.7c0,0.2,0.2,0.3,0.4,0.3h0.1l17.8-3.7c0.2,0,0.4-0.3,0.3-0.5s-0.3-0.4-0.5-0.3l-17.8,3.7
		C569.2,965.2,569,965.5,569.1,965.7z"/>
	<path class="st1" d="M574.5,974.8c0,0.2,0.2,0.4,0.4,0.4l13.4,0.6l0,0c0.2,0,0.4-0.2,0.4-0.4s-0.2-0.4-0.4-0.4l-13.4-0.6
		C574.7,974.4,574.5,974.6,574.5,974.8z"/>
	<path class="st1" d="M576.1,993.4l-12.7-9.5c-0.2-0.1-0.5-0.1-0.6,0.1s-0.1,0.5,0.1,0.6l12.7,9.5c0.1,0.1,0.2,0.1,0.3,0.1
		s0.3-0.1,0.3-0.2C576.4,993.8,576.3,993.5,576.1,993.4z"/>
	<path class="st1" d="M557.2,990c-0.2-0.2-0.4-0.2-0.6-0.1c-0.2,0.2-0.2,0.4-0.1,0.6l16.6,20c0.1,0.1,0.2,0.2,0.3,0.2s0.2,0,0.3-0.1
		c0.2-0.1,0.2-0.4,0.1-0.6L557.2,990z"/>
	<path class="st1" d="M552.3,995.9c-0.1-0.2-0.4-0.3-0.6-0.2s-0.3,0.4-0.2,0.6l5,8.8c0.1,0.1,0.2,0.2,0.4,0.2c0.1,0,0.1,0,0.2-0.1
		c0.2-0.1,0.3-0.4,0.2-0.6L552.3,995.9z"/>
	<path class="st1" d="M544.4,999.4c-0.2,0-0.4,0.2-0.4,0.4v18.5c0,0.2,0.2,0.4,0.4,0.4s0.4-0.2,0.4-0.4v-18.5
		C544.8,999.6,544.6,999.4,544.4,999.4z"/>
	<path class="st1" d="M538.4,993.1c-0.2-0.1-0.5-0.1-0.6,0.1l-12.4,18.1c-0.1,0.2-0.1,0.5,0.1,0.6c0.1,0,0.2,0.1,0.2,0.1
		c0.1,0,0.3-0.1,0.3-0.2l12.4-18C538.7,993.5,538.6,993.2,538.4,993.1z"/>
	<path class="st1" d="M531.5,985.1c-0.1-0.2-0.4-0.2-0.6-0.1l-20.2,14.9c-0.2,0.1-0.2,0.4-0.1,0.6c0.1,0.1,0.2,0.2,0.3,0.2
		c0.1,0,0.2,0,0.3-0.1l20.2-14.9C531.6,985.6,531.6,985.3,531.5,985.1z"/>
	<path class="st1" d="M518.8,975.9c0-0.2-0.3-0.4-0.5-0.4l-11.4,1.9c-0.2,0-0.4,0.3-0.3,0.5c0,0.2,0.2,0.4,0.4,0.4h0.1l11.4-1.8
		C518.7,976.4,518.9,976.2,518.8,975.9z"/>
	<path class="st1" d="M521,966c0.2,0,0.3-0.1,0.4-0.3s0-0.5-0.3-0.5l-19.4-6.7c-0.2-0.1-0.5,0-0.5,0.3c-0.1,0.2,0,0.5,0.3,0.5
		L521,966L521,966z"/>
	<path class="st1" d="M528.5,960.1c0.1,0.1,0.2,0.1,0.3,0.1s0.2,0,0.3-0.1c0.2-0.2,0.1-0.5,0-0.6l-10.6-9.3c-0.2-0.2-0.5-0.1-0.6,0
		c-0.2,0.2-0.1,0.5,0,0.6L528.5,960.1z"/>
	<path class="st1" d="M534.3,955.9c0.1,0.1,0.2,0.1,0.3,0.1s0.2,0,0.3-0.1c0.2-0.2,0.2-0.4,0-0.6L519,936.8c-0.2-0.2-0.4-0.2-0.6,0
		s-0.2,0.4,0,0.6L534.3,955.9z"/>
	<path class="st1" d="M516.6,986l-5.2,2.4c-0.2,0.1-0.3,0.4-0.2,0.6c0.1,0.2,0.2,0.3,0.4,0.3c0.1,0,0.1,0,0.2,0l5.2-2.4
		c0.2-0.1,0.3-0.4,0.2-0.6C517.1,986,516.8,985.9,516.6,986z"/>
	<path class="st1" d="M521.6,984.1c0.1,0.2,0.2,0.3,0.4,0.3c0.1,0,0.1,0,0.2,0l3.3-1.5c0.2-0.1,0.3-0.3,0.2-0.6
		c-0.1-0.2-0.3-0.3-0.6-0.2l-3.3,1.5C521.6,983.6,521.5,983.9,521.6,984.1z"/>
	<path class="st1" d="M588.5,987.6l-3.8-1.8c-0.2-0.1-0.5,0-0.6,0.2s0,0.5,0.2,0.6l3.8,1.8c0.1,0,0.1,0,0.2,0c0.2,0,0.3-0.1,0.4-0.2
		C588.8,988,588.7,987.7,588.5,987.6z"/>
	<path class="st1" d="M578.3,982.8l-7.6-3.6c-0.2-0.1-0.5,0-0.6,0.2s0,0.5,0.2,0.6l7.6,3.6c0.1,0,0.1,0,0.2,0c0.2,0,0.3-0.1,0.4-0.2
		C578.6,983.1,578.5,982.9,578.3,982.8z"/>
	<path class="st1" d="M571.3,936.7c0.1,0,0.3,0,0.3-0.2l2.1-2.6c0.2-0.2,0.1-0.5-0.1-0.6c-0.2-0.2-0.5-0.1-0.6,0.1l-2.1,2.6
		c-0.1,0.2-0.1,0.5,0.1,0.6C571.2,936.7,571.3,936.7,571.3,936.7z"/>
	<path class="st1" d="M556.6,954.2c0.1,0.1,0.2,0.1,0.3,0.1s0.3,0,0.3-0.2l11.1-13.6c0.1-0.2,0.1-0.5-0.1-0.6s-0.4-0.1-0.6,0.1
		l-11.1,13.6C556.4,953.8,556.4,954.1,556.6,954.2z"/>
</g>
<g class="st0">
	<path class="st1" d="M872.2,911.5c0.2,0,0.4-0.2,0.4-0.4s-0.2-0.4-0.4-0.4c-8-1.4-12.6-2.6-15.5-5.5s-4.1-7.5-5.5-15.5
		c0-0.2-0.2-0.4-0.4-0.4s-0.4,0.1-0.4,0.4c-1.4,8-2.6,12.6-5.4,15.5s-7.5,4.1-15.5,5.5c-0.2,0-0.4,0.2-0.4,0.4s0.1,0.4,0.3,0.4
		c15.5,2.9,18.2,4.6,20.9,20.9c0,0.2,0.2,0.4,0.4,0.4s0.4-0.2,0.4-0.4c1.4-8,2.6-12.6,5.5-15.5C859.6,914.1,864.2,912.8,872.2,911.5
		z M850.8,929.9c-2.6-13.8-5.9-16.2-18.9-18.8c13.6-2.5,16.4-5.3,18.9-18.8c2.5,13.5,5.3,16.3,18.8,18.8
		C856.1,913.6,853.3,916.4,850.8,929.9z"/>
	<path class="st1" d="M841.6,887.7c0.1,0.2,0.2,0.2,0.4,0.2c0.1,0,0.1,0,0.2,0c0.2-0.1,0.3-0.4,0.2-0.6l-2.4-4.6
		c-0.1-0.2-0.4-0.3-0.6-0.2s-0.3,0.4-0.2,0.6L841.6,887.7z"/>
	<path class="st1" d="M836.9,878.6c0.1,0.2,0.2,0.2,0.4,0.2c0.1,0,0.1,0,0.2,0c0.2-0.1,0.3-0.4,0.2-0.6l-2.1-4.1
		c-0.1-0.2-0.4-0.3-0.6-0.2s-0.3,0.4-0.2,0.6L836.9,878.6z"/>
	<path class="st1" d="M849.9,883.3c0.2,0,0.4-0.2,0.4-0.4v-23.7c0-0.2-0.2-0.4-0.4-0.4s-0.4,0.2-0.4,0.4v23.6
		C849.4,883.1,849.6,883.3,849.9,883.3z"/>
	<path class="st1" d="M857.3,888.5c0.1,0,0.1,0,0.2,0c0.2,0,0.3-0.1,0.4-0.2l7.1-12.8c0.1-0.2,0-0.5-0.2-0.6s-0.5,0-0.6,0.2
		l-7.1,12.8C857.1,888.1,857.1,888.4,857.3,888.5z"/>
	<path class="st1" d="M867.8,898.3c0.1,0.1,0.2,0.2,0.3,0.2s0.2,0,0.3-0.1l14.1-10.5c0.2-0.1,0.2-0.4,0.1-0.6
		c-0.1-0.2-0.4-0.2-0.6-0.1l-14.1,10.5C867.7,897.8,867.7,898.1,867.8,898.3z"/>
	<path class="st1" d="M874.1,905.7c0,0.2,0.2,0.3,0.4,0.3h0.1l17.8-3.7c0.2,0,0.4-0.3,0.3-0.5s-0.3-0.4-0.5-0.3l-17.8,3.7
		C874.2,905.2,874,905.5,874.1,905.7z"/>
	<path class="st1" d="M879.5,914.8c0,0.2,0.2,0.4,0.4,0.4l13.4,0.6l0,0c0.2,0,0.4-0.2,0.4-0.4s-0.2-0.4-0.4-0.4l-13.4-0.6
		C879.7,914.4,879.5,914.6,879.5,914.8z"/>
	<path class="st1" d="M881.1,933.4l-12.7-9.5c-0.2-0.1-0.5-0.1-0.6,0.1s-0.1,0.5,0.1,0.6l12.7,9.5c0.1,0.1,0.2,0.1,0.3,0.1
		s0.3-0.1,0.3-0.2C881.4,933.8,881.3,933.5,881.1,933.4z"/>
	<path class="st1" d="M862.2,930c-0.2-0.2-0.4-0.2-0.6-0.1c-0.2,0.2-0.2,0.4-0.1,0.6l16.6,20c0.1,0.1,0.2,0.2,0.3,0.2s0.2,0,0.3-0.1
		c0.2-0.1,0.2-0.4,0.1-0.6L862.2,930z"/>
	<path class="st1" d="M857.3,935.9c-0.1-0.2-0.4-0.3-0.6-0.2s-0.3,0.4-0.2,0.6l5,8.8c0.1,0.1,0.2,0.2,0.4,0.2c0.1,0,0.1,0,0.2-0.1
		c0.2-0.1,0.3-0.4,0.2-0.6L857.3,935.9z"/>
	<path class="st1" d="M849.4,939.4c-0.2,0-0.4,0.2-0.4,0.4v18.5c0,0.2,0.2,0.4,0.4,0.4s0.4-0.2,0.4-0.4v-18.5
		C849.8,939.6,849.6,939.4,849.4,939.4z"/>
	<path class="st1" d="M843.4,933.1c-0.2-0.1-0.5-0.1-0.6,0.1l-12.4,18.1c-0.1,0.2-0.1,0.5,0.1,0.6c0.1,0,0.2,0.1,0.2,0.1
		c0.1,0,0.3-0.1,0.3-0.2l12.4-18C843.7,933.5,843.6,933.2,843.4,933.1z"/>
	<path class="st1" d="M836.5,925.1c-0.1-0.2-0.4-0.2-0.6-0.1l-20.2,14.9c-0.2,0.1-0.2,0.4-0.1,0.6c0.1,0.1,0.2,0.2,0.3,0.2
		s0.2,0,0.3-0.1l20.2-14.9C836.6,925.6,836.6,925.3,836.5,925.1z"/>
	<path class="st1" d="M823.8,915.9c0-0.2-0.3-0.4-0.5-0.4l-11.4,1.9c-0.2,0-0.4,0.3-0.3,0.5c0,0.2,0.2,0.4,0.4,0.4h0.1l11.4-1.8
		C823.7,916.4,823.9,916.2,823.8,915.9z"/>
	<path class="st1" d="M826,906c0.2,0,0.3-0.1,0.4-0.3s0-0.5-0.3-0.5l-19.4-6.7c-0.2-0.1-0.5,0-0.5,0.3c-0.1,0.2,0,0.5,0.3,0.5
		L826,906L826,906z"/>
	<path class="st1" d="M833.5,900.1c0.1,0.1,0.2,0.1,0.3,0.1s0.2,0,0.3-0.1c0.2-0.2,0.1-0.5,0-0.6l-10.6-9.3c-0.2-0.2-0.5-0.1-0.6,0
		c-0.2,0.2-0.1,0.5,0,0.6L833.5,900.1z"/>
	<path class="st1" d="M839.3,895.9c0.1,0.1,0.2,0.1,0.3,0.1s0.2,0,0.3-0.1c0.2-0.2,0.2-0.4,0-0.6L824,876.8c-0.2-0.2-0.4-0.2-0.6,0
		s-0.2,0.4,0,0.6L839.3,895.9z"/>
	<path class="st1" d="M821.6,926l-5.2,2.4c-0.2,0.1-0.3,0.4-0.2,0.6c0.1,0.2,0.2,0.3,0.4,0.3c0.1,0,0.1,0,0.2,0l5.2-2.4
		c0.2-0.1,0.3-0.4,0.2-0.6C822.1,926,821.8,925.9,821.6,926z"/>
	<path class="st1" d="M826.6,924.1c0.1,0.2,0.2,0.3,0.4,0.3c0.1,0,0.1,0,0.2,0l3.3-1.5c0.2-0.1,0.3-0.3,0.2-0.6
		c-0.1-0.2-0.3-0.3-0.6-0.2l-3.3,1.5C826.6,923.6,826.5,923.9,826.6,924.1z"/>
	<path class="st1" d="M893.5,927.6l-3.8-1.8c-0.2-0.1-0.5,0-0.6,0.2s0,0.5,0.2,0.6l3.8,1.8c0.1,0,0.1,0,0.2,0c0.2,0,0.3-0.1,0.4-0.2
		C893.8,928,893.7,927.7,893.5,927.6z"/>
	<path class="st1" d="M883.3,922.8l-7.6-3.6c-0.2-0.1-0.5,0-0.6,0.2s0,0.5,0.2,0.6l7.6,3.6c0.1,0,0.1,0,0.2,0c0.2,0,0.3-0.1,0.4-0.2
		C883.6,923.1,883.5,922.9,883.3,922.8z"/>
	<path class="st1" d="M876.3,876.7c0.1,0,0.3,0,0.3-0.2l2.1-2.6c0.2-0.2,0.1-0.5-0.1-0.6c-0.2-0.2-0.5-0.1-0.6,0.1l-2.1,2.6
		c-0.1,0.2-0.1,0.5,0.1,0.6C876.2,876.7,876.3,876.7,876.3,876.7z"/>
	<path class="st1" d="M861.6,894.2c0.1,0.1,0.2,0.1,0.3,0.1s0.3,0,0.3-0.2l11.1-13.6c0.1-0.2,0.1-0.5-0.1-0.6s-0.4-0.1-0.6,0.1
		l-11.1,13.6C861.4,893.8,861.4,894.1,861.6,894.2z"/>
</g>
<g class="st0">
	<path class="st1" d="M460.2,192.5c0.2,0,0.4-0.2,0.4-0.4s-0.2-0.4-0.4-0.4c-8-1.4-12.6-2.6-15.5-5.4c-2.9-2.9-4.1-7.5-5.5-15.5
		c0-0.2-0.2-0.4-0.4-0.4c-0.2,0-0.4,0.1-0.4,0.4c-1.4,8-2.6,12.6-5.4,15.5c-2.9,2.9-7.5,4.1-15.5,5.4c-0.2,0-0.4,0.2-0.4,0.4
		s0.1,0.4,0.3,0.4c15.5,2.9,18.2,4.6,20.9,20.9c0,0.2,0.2,0.4,0.4,0.4c0.2,0,0.4-0.2,0.4-0.4c1.4-8,2.6-12.6,5.5-15.5
		C447.6,195.1,452.2,193.8,460.2,192.5z M438.8,210.9c-2.6-13.8-5.9-16.2-18.9-18.8c13.6-2.5,16.4-5.3,18.9-18.8
		c2.5,13.5,5.3,16.3,18.8,18.8C444.1,194.6,441.3,197.4,438.8,210.9z"/>
	<path class="st1" d="M429.6,168.7c0.1,0.2,0.2,0.2,0.4,0.2c0.1,0,0.1,0,0.2-0.1c0.2-0.1,0.3-0.4,0.2-0.6l-2.4-4.6
		c-0.1-0.2-0.4-0.3-0.6-0.2s-0.3,0.4-0.2,0.6L429.6,168.7z"/>
	<path class="st1" d="M424.9,159.6c0.1,0.2,0.2,0.2,0.4,0.2c0.1,0,0.1,0,0.2,0c0.2-0.1,0.3-0.4,0.2-0.6l-2.1-4.1
		c-0.1-0.2-0.4-0.3-0.6-0.2s-0.3,0.4-0.2,0.6L424.9,159.6z"/>
	<path class="st1" d="M437.9,164.3c0.2,0,0.4-0.2,0.4-0.4v-23.7c0-0.2-0.2-0.4-0.4-0.4c-0.2,0-0.4,0.2-0.4,0.4v23.6
		C437.4,164.1,437.6,164.3,437.9,164.3z"/>
	<path class="st1" d="M445.3,169.5c0.1,0,0.1,0,0.2,0c0.2,0,0.3-0.1,0.4-0.2l7.1-12.8c0.1-0.2,0-0.5-0.2-0.6s-0.5,0-0.6,0.2
		l-7.1,12.8C445.1,169.1,445.1,169.4,445.3,169.5z"/>
	<path class="st1" d="M455.8,179.3c0.1,0.1,0.2,0.2,0.3,0.2c0.1,0,0.2,0,0.3-0.1l14.1-10.5c0.2-0.1,0.2-0.4,0.1-0.6
		s-0.4-0.2-0.6-0.1l-14.1,10.5C455.7,178.8,455.7,179.1,455.8,179.3z"/>
	<path class="st1" d="M462.1,186.7c0,0.2,0.2,0.3,0.4,0.3h0.1l17.8-3.7c0.2-0.1,0.4-0.3,0.3-0.5s-0.3-0.4-0.5-0.3l-17.8,3.7
		C462.2,186.2,462,186.5,462.1,186.7z"/>
	<path class="st1" d="M467.5,195.8c0,0.2,0.2,0.4,0.4,0.4l13.4,0.6l0,0c0.2,0,0.4-0.2,0.4-0.4s-0.2-0.4-0.4-0.4l-13.4-0.6
		C467.7,195.4,467.5,195.6,467.5,195.8z"/>
	<path class="st1" d="M469.1,214.4l-12.7-9.5c-0.2-0.1-0.5-0.1-0.6,0.1s-0.1,0.5,0.1,0.6l12.7,9.5c0.1,0.1,0.2,0.1,0.3,0.1
		c0.1,0,0.3-0.1,0.3-0.2C469.4,214.8,469.3,214.5,469.1,214.4z"/>
	<path class="st1" d="M450.2,211c-0.2-0.2-0.4-0.2-0.6-0.1c-0.2,0.2-0.2,0.4-0.1,0.6l16.6,20c0.1,0.1,0.2,0.2,0.3,0.2
		c0.1,0,0.2,0,0.3-0.1c0.2-0.1,0.2-0.4,0.1-0.6L450.2,211z"/>
	<path class="st1" d="M445.3,216.9c-0.1-0.2-0.4-0.3-0.6-0.2s-0.3,0.4-0.2,0.6l5,8.8c0.1,0.1,0.2,0.2,0.4,0.2c0.1,0,0.1,0,0.2-0.1
		c0.2-0.1,0.3-0.4,0.2-0.6L445.3,216.9z"/>
	<path class="st1" d="M437.4,220.4c-0.2,0-0.4,0.2-0.4,0.4v18.5c0,0.2,0.2,0.4,0.4,0.4s0.4-0.2,0.4-0.4v-18.5
		C437.8,220.6,437.6,220.4,437.4,220.4z"/>
	<path class="st1" d="M431.4,214.1c-0.2-0.1-0.5-0.1-0.6,0.1l-12.4,18.1c-0.1,0.2-0.1,0.5,0.1,0.6c0.1,0.1,0.2,0.1,0.2,0.1
		c0.1,0,0.3-0.1,0.3-0.2l12.4-18.1C431.7,214.5,431.6,214.2,431.4,214.1z"/>
	<path class="st1" d="M424.5,206.1c-0.1-0.2-0.4-0.2-0.6-0.1l-20.2,14.9c-0.2,0.1-0.2,0.4-0.1,0.6c0.1,0.1,0.2,0.2,0.3,0.2
		c0.1,0,0.2,0,0.3-0.1l20.2-14.9C424.6,206.6,424.6,206.3,424.5,206.1z"/>
	<path class="st1" d="M411.8,196.9c0-0.2-0.3-0.4-0.5-0.3l-11.4,1.8c-0.2,0-0.4,0.3-0.3,0.5c0,0.2,0.2,0.4,0.4,0.4h0.1l11.4-1.8
		C411.7,197.4,411.9,197.2,411.8,196.9z"/>
	<path class="st1" d="M414,187c0.2,0,0.3-0.1,0.4-0.3s0-0.5-0.3-0.5l-19.4-6.7c-0.2-0.1-0.5,0-0.5,0.3c-0.1,0.2,0,0.5,0.3,0.5
		L414,187L414,187z"/>
	<path class="st1" d="M421.5,181.1c0.1,0.1,0.2,0.1,0.3,0.1c0.1,0,0.2,0,0.3-0.2c0.2-0.2,0.1-0.4,0-0.6l-10.6-9.3
		c-0.2-0.2-0.5-0.1-0.6,0c-0.2,0.2-0.1,0.4,0,0.6L421.5,181.1z"/>
	<path class="st1" d="M427.3,176.9c0.1,0.1,0.2,0.2,0.3,0.2c0.1,0,0.2,0,0.3-0.1c0.2-0.2,0.2-0.4,0-0.6L412,157.9
		c-0.2-0.2-0.4-0.2-0.6,0c-0.2,0.1-0.2,0.4,0,0.6L427.3,176.9z"/>
	<path class="st1" d="M409.6,207l-5.2,2.4c-0.2,0.1-0.3,0.3-0.2,0.6c0.1,0.2,0.2,0.3,0.4,0.3c0.1,0,0.1,0,0.2,0l5.2-2.4
		c0.2-0.1,0.3-0.3,0.2-0.6C410.1,207,409.8,206.9,409.6,207z"/>
	<path class="st1" d="M414.6,205.1c0.1,0.2,0.2,0.3,0.4,0.3c0.1,0,0.1,0,0.2,0l3.3-1.5c0.2-0.1,0.3-0.3,0.2-0.6
		c-0.1-0.2-0.3-0.3-0.6-0.2l-3.3,1.5C414.6,204.6,414.5,204.9,414.6,205.1z"/>
	<path class="st1" d="M481.5,208.6l-3.8-1.8c-0.2-0.1-0.5,0-0.6,0.2s0,0.5,0.2,0.6l3.8,1.8c0.1,0,0.1,0,0.2,0c0.2,0,0.3-0.1,0.4-0.2
		C481.8,209,481.7,208.7,481.5,208.6z"/>
	<path class="st1" d="M471.3,203.8l-7.6-3.6c-0.2-0.1-0.5,0-0.6,0.2s0,0.5,0.2,0.6l7.6,3.6c0.1,0,0.1,0,0.2,0c0.2,0,0.3-0.1,0.4-0.2
		C471.6,204.1,471.5,203.9,471.3,203.8z"/>
	<path class="st1" d="M464.3,157.7c0.1,0,0.3,0,0.3-0.2l2.1-2.6c0.2-0.2,0.1-0.5-0.1-0.6c-0.2-0.2-0.5-0.1-0.6,0.1l-2.1,2.6
		c-0.1,0.2-0.1,0.5,0.1,0.6S464.3,157.7,464.3,157.7z"/>
	<path class="st1" d="M449.6,175.2c0.1,0.1,0.2,0.1,0.3,0.1c0.1,0,0.3-0.1,0.3-0.2l11.1-13.6c0.1-0.2,0.1-0.5-0.1-0.6
		s-0.4-0.1-0.6,0.1l-11.1,13.6C449.4,174.8,449.4,175.1,449.6,175.2z"/>
</g>
<g class="st0">
	<path class="st1" d="M81.9,289.3c0.2,0,0.4-0.2,0.4-0.4s-0.2-0.4-0.4-0.4c-8-1.4-12.6-2.6-15.5-5.4s-4.1-7.5-5.5-15.5
		c0-0.2-0.2-0.4-0.4-0.4s-0.4,0.2-0.4,0.4c-1.4,8-2.6,12.6-5.4,15.5c-2.9,2.9-7.5,4.1-15.5,5.4c-0.2,0-0.3,0.2-0.4,0.4
		c0,0.2,0.1,0.4,0.4,0.4c15.5,2.9,18.2,4.6,20.9,20.9c0,0.2,0.2,0.4,0.4,0.4s0.4-0.2,0.4-0.4c1.4-8,2.6-12.6,5.5-15.5
		S73.9,290.5,81.9,289.3z M60.5,307.7c-2.6-13.8-5.9-16.2-18.9-18.8c13.6-2.5,16.4-5.3,18.9-18.9c2.5,13.5,5.3,16.3,18.8,18.8
		C65.8,291.3,63,294.2,60.5,307.7z"/>
	<path class="st1" d="M51.3,265.5c0.1,0.1,0.2,0.2,0.4,0.2c0.1,0,0.1,0,0.2-0.1c0.2-0.1,0.3-0.4,0.2-0.6l-2.4-4.6
		c-0.1-0.2-0.4-0.3-0.6-0.2c-0.2,0.1-0.3,0.4-0.2,0.6L51.3,265.5z"/>
	<path class="st1" d="M46.6,256.3c0.1,0.1,0.2,0.2,0.4,0.2c0.1,0,0.1,0,0.2-0.1c0.2-0.1,0.3-0.4,0.2-0.6l-2.1-4.1
		c-0.1-0.2-0.4-0.3-0.6-0.2c-0.2,0.1-0.3,0.4-0.2,0.6L46.6,256.3z"/>
	<path class="st1" d="M59.6,261c0.2,0,0.4-0.2,0.4-0.4v-23.7c0-0.2-0.2-0.4-0.4-0.4s-0.4,0.2-0.4,0.4v23.6
		C59.1,260.8,59.3,261,59.6,261z"/>
	<path class="st1" d="M67,266.3c0.1,0,0.1,0.1,0.2,0.1c0.2,0,0.3-0.1,0.4-0.2l7.1-12.8c0.1-0.2,0-0.5-0.2-0.6s-0.5,0-0.6,0.2
		l-7.1,12.8C66.8,265.8,66.8,266.1,67,266.3z"/>
	<path class="st1" d="M77.5,276c0.1,0.1,0.2,0.2,0.3,0.2s0.2,0,0.3-0.1l14.1-10.4c0.2-0.1,0.2-0.4,0.1-0.6s-0.4-0.2-0.6-0.1
		l-14.1,10.4C77.4,275.5,77.4,275.8,77.5,276z"/>
	<path class="st1" d="M83.8,283.5c0,0.2,0.2,0.3,0.4,0.3h0.1l17.8-3.7c0.2,0,0.4-0.3,0.3-0.5c0-0.2-0.3-0.4-0.5-0.3L84.1,283
		C83.9,283,83.7,283.3,83.8,283.5z"/>
	<path class="st1" d="M89.2,292.5c0,0.2,0.2,0.4,0.4,0.4l13.4,0.6l0,0c0.2,0,0.4-0.2,0.4-0.4c0-0.2-0.2-0.4-0.4-0.4l-13.4-0.6
		C89.4,292.1,89.2,292.3,89.2,292.5z"/>
	<path class="st1" d="M90.8,311.2l-12.7-9.5c-0.2-0.1-0.5-0.1-0.6,0.1s-0.1,0.5,0.1,0.6l12.7,9.5c0.1,0.1,0.2,0.1,0.3,0.1
		s0.3-0.1,0.3-0.2C91.1,311.5,91,311.3,90.8,311.2z"/>
	<path class="st1" d="M71.9,307.8c-0.1-0.2-0.4-0.2-0.6-0.1s-0.2,0.4-0.1,0.6l16.5,20c0.1,0.1,0.2,0.2,0.3,0.2s0.2,0,0.3-0.1
		c0.2-0.2,0.2-0.4,0.1-0.6L71.9,307.8z"/>
	<path class="st1" d="M67,313.7c-0.1-0.2-0.4-0.3-0.6-0.2s-0.3,0.4-0.2,0.6l5,8.8c0.1,0.1,0.2,0.2,0.4,0.2c0.1,0,0.1,0,0.2-0.1
		c0.2-0.1,0.3-0.4,0.2-0.6L67,313.7z"/>
	<path class="st1" d="M59.1,317.2c-0.2,0-0.4,0.2-0.4,0.4V336c0,0.2,0.2,0.4,0.4,0.4s0.4-0.2,0.4-0.4v-18.5
		C59.5,317.3,59.3,317.2,59.1,317.2z"/>
	<path class="st1" d="M53.1,310.8c-0.2-0.1-0.5-0.1-0.6,0.1l-12.3,18c-0.1,0.2-0.1,0.5,0.1,0.6c0.1,0.1,0.2,0.1,0.2,0.1
		c0.1,0,0.3-0.1,0.4-0.2l12.4-18C53.4,311.3,53.3,311,53.1,310.8z"/>
	<path class="st1" d="M46.2,302.8c-0.1-0.2-0.4-0.2-0.6-0.1l-20.2,14.9c-0.2,0.1-0.2,0.4-0.1,0.6c0.1,0.1,0.2,0.2,0.3,0.2
		s0.2,0,0.3-0.1l20.2-14.9C46.3,303.3,46.3,303,46.2,302.8z"/>
	<path class="st1" d="M33.5,293.6c0-0.2-0.3-0.4-0.5-0.4L21.6,295c-0.2,0-0.4,0.3-0.4,0.5s0.2,0.4,0.4,0.4c0,0,0,0,0.1,0l11.4-1.9
		C33.4,294.2,33.6,294,33.5,293.6z"/>
	<path class="st1" d="M35.7,283.8c0.2,0,0.3-0.1,0.4-0.3c0.1-0.2,0-0.5-0.3-0.5l-19.4-6.7c-0.2-0.1-0.5,0-0.5,0.3
		c-0.1,0.2,0,0.5,0.3,0.5L35.7,283.8C35.6,283.8,35.7,283.8,35.7,283.8z"/>
	<path class="st1" d="M43.2,277.8c0.1,0.1,0.2,0.1,0.3,0.1s0.2-0.1,0.3-0.2c0.2-0.2,0.1-0.4,0-0.6l-10.6-9.3c-0.2-0.2-0.4-0.1-0.6,0
		c-0.2,0.2-0.1,0.5,0,0.6L43.2,277.8z"/>
	<path class="st1" d="M49,273.6c0.1,0.1,0.2,0.1,0.3,0.1s0.2,0,0.3-0.1c0.2-0.2,0.2-0.4,0-0.6l-15.9-18.5c-0.2-0.2-0.4-0.2-0.6,0
		c-0.2,0.1-0.2,0.4,0,0.6L49,273.6z"/>
	<path class="st1" d="M31.3,303.8l-5.2,2.4c-0.2,0.1-0.3,0.3-0.2,0.6c0.1,0.2,0.2,0.3,0.4,0.3c0.1,0,0.1,0,0.2,0l5.2-2.4
		c0.2-0.1,0.3-0.4,0.2-0.6C31.8,303.8,31.5,303.7,31.3,303.8z"/>
	<path class="st1" d="M36.3,301.8c0.1,0.2,0.2,0.3,0.4,0.3c0.1,0,0.1,0,0.2,0l3.3-1.5c0.2-0.1,0.3-0.4,0.2-0.6s-0.4-0.3-0.6-0.2
		l-3.3,1.5C36.3,301.3,36.2,301.7,36.3,301.8z"/>
	<path class="st1" d="M103.2,305.3l-3.8-1.8c-0.2-0.1-0.5,0-0.6,0.2s0,0.5,0.2,0.6l3.9,1.8c0.1,0,0.1,0,0.2,0c0.2,0,0.3-0.1,0.4-0.2
		C103.5,305.8,103.4,305.5,103.2,305.3z"/>
	<path class="st1" d="M93,300.5l-7.6-3.6c-0.2-0.1-0.5,0-0.6,0.2s0,0.5,0.2,0.6l7.6,3.6c0.1,0,0.1,0,0.2,0c0.2,0,0.3-0.1,0.4-0.2
		C93.3,300.8,93.2,300.7,93,300.5z"/>
	<path class="st1" d="M86,254.4c0.1,0,0.3-0.1,0.3-0.2l2.1-2.6c0.1-0.2,0.1-0.4-0.1-0.6c-0.2-0.1-0.5-0.1-0.6,0.1l-2.1,2.6
		c-0.2,0.2-0.1,0.4,0.1,0.6C85.9,254.4,86,254.4,86,254.4z"/>
	<path class="st1" d="M71.3,272c0.1,0.1,0.2,0.1,0.3,0.1s0.3,0,0.3-0.2L83,258.3c0.2-0.2,0.1-0.4-0.1-0.6s-0.4-0.1-0.6,0.1
		l-11.1,13.6C71.1,271.5,71.1,271.8,71.3,272z"/>
</g>
<g class="st0">
	<path class="st1" d="M654.2,718.5c0.2,0,0.4-0.2,0.4-0.4s-0.2-0.4-0.4-0.4c-8-1.4-12.6-2.6-15.5-5.5s-4.1-7.5-5.5-15.5
		c0-0.2-0.2-0.4-0.4-0.4s-0.4,0.1-0.4,0.4c-1.4,8-2.6,12.6-5.4,15.5s-7.5,4.1-15.5,5.5c-0.2,0-0.4,0.2-0.4,0.4s0.1,0.4,0.3,0.4
		c15.5,2.9,18.2,4.6,20.9,20.9c0,0.2,0.2,0.4,0.4,0.4s0.4-0.2,0.4-0.4c1.4-8,2.6-12.6,5.5-15.5C641.6,721.1,646.2,719.8,654.2,718.5
		z M632.8,736.9c-2.6-13.8-5.9-16.2-18.9-18.8c13.6-2.5,16.4-5.3,18.9-18.8c2.5,13.5,5.3,16.3,18.8,18.8
		C638.1,720.6,635.3,723.4,632.8,736.9z"/>
	<path class="st1" d="M623.6,694.7c0.1,0.2,0.2,0.2,0.4,0.2c0.1,0,0.1,0,0.2,0c0.2-0.1,0.3-0.4,0.2-0.6l-2.4-4.6
		c-0.1-0.2-0.4-0.3-0.6-0.2s-0.3,0.4-0.2,0.6L623.6,694.7z"/>
	<path class="st1" d="M618.9,685.6c0.1,0.2,0.2,0.2,0.4,0.2c0.1,0,0.1,0,0.2,0c0.2-0.1,0.3-0.4,0.2-0.6l-2.1-4.1
		c-0.1-0.2-0.4-0.3-0.6-0.2s-0.3,0.4-0.2,0.6L618.9,685.6z"/>
	<path class="st1" d="M631.9,690.3c0.2,0,0.4-0.2,0.4-0.4v-23.7c0-0.2-0.2-0.4-0.4-0.4s-0.4,0.2-0.4,0.4v23.6
		C631.4,690.1,631.6,690.3,631.9,690.3z"/>
	<path class="st1" d="M639.3,695.5c0.1,0,0.1,0,0.2,0c0.2,0,0.3-0.1,0.4-0.2l7.1-12.8c0.1-0.2,0-0.5-0.2-0.6s-0.5,0-0.6,0.2
		l-7.1,12.8C639.1,695.1,639.1,695.4,639.3,695.5z"/>
	<path class="st1" d="M649.8,705.3c0.1,0.1,0.2,0.2,0.3,0.2s0.2,0,0.3-0.1l14.1-10.5c0.2-0.1,0.2-0.4,0.1-0.6
		c-0.1-0.2-0.4-0.2-0.6-0.1l-14.1,10.5C649.7,704.8,649.7,705.1,649.8,705.3z"/>
	<path class="st1" d="M656.1,712.7c0,0.2,0.2,0.3,0.4,0.3h0.1l17.8-3.7c0.2,0,0.4-0.3,0.3-0.5s-0.3-0.4-0.5-0.3l-17.8,3.7
		C656.2,712.2,656,712.5,656.1,712.7z"/>
	<path class="st1" d="M661.5,721.8c0,0.2,0.2,0.4,0.4,0.4l13.4,0.6l0,0c0.2,0,0.4-0.2,0.4-0.4s-0.2-0.4-0.4-0.4l-13.4-0.6
		C661.7,721.4,661.5,721.6,661.5,721.8z"/>
	<path class="st1" d="M663.1,740.4l-12.7-9.5c-0.2-0.1-0.5-0.1-0.6,0.1s-0.1,0.5,0.1,0.6l12.7,9.5c0.1,0.1,0.2,0.1,0.3,0.1
		s0.3-0.1,0.3-0.2C663.4,740.8,663.3,740.5,663.1,740.4z"/>
	<path class="st1" d="M644.2,737c-0.2-0.2-0.4-0.2-0.6-0.1c-0.2,0.2-0.2,0.4-0.1,0.6l16.6,20c0.1,0.1,0.2,0.2,0.3,0.2s0.2,0,0.3-0.1
		c0.2-0.1,0.2-0.4,0.1-0.6L644.2,737z"/>
	<path class="st1" d="M639.3,742.9c-0.1-0.2-0.4-0.3-0.6-0.2s-0.3,0.4-0.2,0.6l5,8.8c0.1,0.1,0.2,0.2,0.4,0.2c0.1,0,0.1,0,0.2-0.1
		c0.2-0.1,0.3-0.4,0.2-0.6L639.3,742.9z"/>
	<path class="st1" d="M631.4,746.4c-0.2,0-0.4,0.2-0.4,0.4v18.5c0,0.2,0.2,0.4,0.4,0.4s0.4-0.2,0.4-0.4v-18.5
		C631.8,746.6,631.6,746.4,631.4,746.4z"/>
	<path class="st1" d="M625.4,740.1c-0.2-0.1-0.5-0.1-0.6,0.1l-12.4,18.1c-0.1,0.2-0.1,0.5,0.1,0.6c0.1,0,0.2,0.1,0.2,0.1
		c0.1,0,0.3-0.1,0.3-0.2l12.4-18C625.7,740.5,625.6,740.2,625.4,740.1z"/>
	<path class="st1" d="M618.5,732.1c-0.1-0.2-0.4-0.2-0.6-0.1l-20.2,14.9c-0.2,0.1-0.2,0.4-0.1,0.6c0.1,0.1,0.2,0.2,0.3,0.2
		s0.2,0,0.3-0.1l20.2-14.9C618.6,732.6,618.6,732.3,618.5,732.1z"/>
	<path class="st1" d="M605.8,722.9c0-0.2-0.3-0.4-0.5-0.4l-11.4,1.9c-0.2,0-0.4,0.3-0.3,0.5c0,0.2,0.2,0.4,0.4,0.4h0.1l11.4-1.8
		C605.7,723.4,605.9,723.2,605.8,722.9z"/>
	<path class="st1" d="M608,713c0.2,0,0.3-0.1,0.4-0.3s0-0.5-0.3-0.5l-19.4-6.7c-0.2-0.1-0.5,0-0.5,0.3c-0.1,0.2,0,0.5,0.3,0.5
		L608,713L608,713z"/>
	<path class="st1" d="M615.5,707.1c0.1,0.1,0.2,0.1,0.3,0.1s0.2,0,0.3-0.1c0.2-0.2,0.1-0.5,0-0.6l-10.6-9.3c-0.2-0.2-0.5-0.1-0.6,0
		c-0.2,0.2-0.1,0.5,0,0.6L615.5,707.1z"/>
	<path class="st1" d="M621.3,702.9c0.1,0.1,0.2,0.1,0.3,0.1s0.2,0,0.3-0.1c0.2-0.2,0.2-0.4,0-0.6L606,683.8c-0.2-0.2-0.4-0.2-0.6,0
		s-0.2,0.4,0,0.6L621.3,702.9z"/>
	<path class="st1" d="M603.6,733l-5.2,2.4c-0.2,0.1-0.3,0.4-0.2,0.6c0.1,0.2,0.2,0.3,0.4,0.3c0.1,0,0.1,0,0.2,0l5.2-2.4
		c0.2-0.1,0.3-0.4,0.2-0.6C604.1,733,603.8,732.9,603.6,733z"/>
	<path class="st1" d="M608.6,731.1c0.1,0.2,0.2,0.3,0.4,0.3c0.1,0,0.1,0,0.2,0l3.3-1.5c0.2-0.1,0.3-0.3,0.2-0.6
		c-0.1-0.2-0.3-0.3-0.6-0.2l-3.3,1.5C608.6,730.6,608.5,730.9,608.6,731.1z"/>
	<path class="st1" d="M675.5,734.6l-3.8-1.8c-0.2-0.1-0.5,0-0.6,0.2s0,0.5,0.2,0.6l3.8,1.8c0.1,0,0.1,0,0.2,0c0.2,0,0.3-0.1,0.4-0.2
		C675.8,735,675.7,734.7,675.5,734.6z"/>
	<path class="st1" d="M665.3,729.8l-7.6-3.6c-0.2-0.1-0.5,0-0.6,0.2s0,0.5,0.2,0.6l7.6,3.6c0.1,0,0.1,0,0.2,0c0.2,0,0.3-0.1,0.4-0.2
		C665.6,730.1,665.5,729.9,665.3,729.8z"/>
	<path class="st1" d="M658.3,683.7c0.1,0,0.3,0,0.3-0.2l2.1-2.6c0.2-0.2,0.1-0.5-0.1-0.6c-0.2-0.2-0.5-0.1-0.6,0.1l-2.1,2.6
		c-0.1,0.2-0.1,0.5,0.1,0.6C658.2,683.7,658.3,683.7,658.3,683.7z"/>
	<path class="st1" d="M643.6,701.2c0.1,0.1,0.2,0.1,0.3,0.1s0.3,0,0.3-0.2l11.1-13.6c0.1-0.2,0.1-0.5-0.1-0.6s-0.4-0.1-0.6,0.1
		l-11.1,13.6C643.4,700.8,643.4,701.1,643.6,701.2z"/>
</g>
<g class="st0">
	<path class="st1" d="M163.2,961.5c0.2,0,0.4-0.2,0.4-0.4s-0.2-0.4-0.4-0.4c-8-1.4-12.6-2.6-15.5-5.5s-4.1-7.5-5.5-15.5
		c0-0.2-0.2-0.4-0.4-0.4s-0.4,0.1-0.4,0.4c-1.4,8-2.6,12.6-5.4,15.5c-2.9,2.9-7.5,4.1-15.5,5.5c-0.2,0-0.3,0.2-0.4,0.4
		c0,0.2,0.1,0.4,0.4,0.4c15.5,2.9,18.2,4.6,20.9,20.9c0,0.2,0.2,0.4,0.4,0.4s0.4-0.2,0.4-0.4c1.4-8,2.6-12.6,5.5-15.5
		C150.6,964.1,155.2,962.8,163.2,961.5z M141.8,979.9c-2.6-13.8-5.9-16.2-18.9-18.8c13.6-2.5,16.4-5.3,18.9-18.8
		c2.5,13.5,5.3,16.3,18.8,18.8C147.1,963.6,144.3,966.4,141.8,979.9z"/>
	<path class="st1" d="M132.6,937.7c0.1,0.2,0.2,0.2,0.4,0.2c0.1,0,0.1,0,0.2,0c0.2-0.1,0.3-0.4,0.2-0.6l-2.4-4.6
		c-0.1-0.2-0.4-0.3-0.6-0.2c-0.2,0.1-0.3,0.4-0.2,0.6L132.6,937.7z"/>
	<path class="st1" d="M127.9,928.6c0.1,0.2,0.2,0.2,0.4,0.2c0.1,0,0.1,0,0.2,0c0.2-0.1,0.3-0.4,0.2-0.6l-2.1-4.1
		c-0.1-0.2-0.4-0.3-0.6-0.2s-0.3,0.4-0.2,0.6L127.9,928.6z"/>
	<path class="st1" d="M140.9,933.3c0.2,0,0.4-0.2,0.4-0.4v-23.7c0-0.2-0.2-0.4-0.4-0.4s-0.4,0.2-0.4,0.4v23.6
		C140.4,933.1,140.6,933.3,140.9,933.3z"/>
	<path class="st1" d="M148.3,938.5c0.1,0,0.1,0,0.2,0c0.2,0,0.3-0.1,0.4-0.2l7.1-12.8c0.1-0.2,0-0.5-0.2-0.6s-0.5,0-0.6,0.2
		l-7.1,12.8C148.1,938.1,148.1,938.4,148.3,938.5z"/>
	<path class="st1" d="M158.8,948.3c0.1,0.1,0.2,0.2,0.3,0.2s0.2,0,0.3-0.1l14.1-10.5c0.2-0.1,0.2-0.4,0.1-0.6
		c-0.1-0.2-0.4-0.2-0.6-0.1l-14.1,10.5C158.7,947.8,158.7,948.1,158.8,948.3z"/>
	<path class="st1" d="M165.1,955.7c0,0.2,0.2,0.3,0.4,0.3h0.1l17.8-3.7c0.2,0,0.4-0.3,0.3-0.5s-0.3-0.4-0.5-0.3l-17.8,3.7
		C165.2,955.2,165,955.5,165.1,955.7z"/>
	<path class="st1" d="M170.5,964.8c0,0.2,0.2,0.4,0.4,0.4l13.4,0.6l0,0c0.2,0,0.4-0.2,0.4-0.4s-0.2-0.4-0.4-0.4l-13.4-0.6
		C170.7,964.4,170.5,964.6,170.5,964.8z"/>
	<path class="st1" d="M172.1,983.4l-12.7-9.5c-0.2-0.1-0.5-0.1-0.6,0.1s-0.1,0.5,0.1,0.6l12.7,9.5c0.1,0.1,0.2,0.1,0.3,0.1
		s0.3-0.1,0.3-0.2C172.4,983.8,172.3,983.5,172.1,983.4z"/>
	<path class="st1" d="M153.2,980c-0.2-0.2-0.4-0.2-0.6-0.1c-0.2,0.2-0.2,0.4-0.1,0.6l16.6,20c0.1,0.1,0.2,0.2,0.3,0.2s0.2,0,0.3-0.1
		c0.2-0.1,0.2-0.4,0.1-0.6L153.2,980z"/>
	<path class="st1" d="M148.3,985.9c-0.1-0.2-0.4-0.3-0.6-0.2s-0.3,0.4-0.2,0.6l5,8.8c0.1,0.1,0.2,0.2,0.4,0.2c0.1,0,0.1,0,0.2-0.1
		c0.2-0.1,0.3-0.4,0.2-0.6L148.3,985.9z"/>
	<path class="st1" d="M140.4,989.4c-0.2,0-0.4,0.2-0.4,0.4v18.5c0,0.2,0.2,0.4,0.4,0.4s0.4-0.2,0.4-0.4v-18.5
		C140.8,989.6,140.6,989.4,140.4,989.4z"/>
	<path class="st1" d="M134.4,983.1c-0.2-0.1-0.5-0.1-0.6,0.1l-12.4,18.1c-0.1,0.2-0.1,0.5,0.1,0.6c0.1,0,0.2,0.1,0.2,0.1
		c0.1,0,0.3-0.1,0.4-0.2l12.4-18C134.7,983.5,134.6,983.2,134.4,983.1z"/>
	<path class="st1" d="M127.5,975.1c-0.1-0.2-0.4-0.2-0.6-0.1l-20.2,14.9c-0.2,0.1-0.2,0.4-0.1,0.6c0.1,0.1,0.2,0.2,0.3,0.2
		s0.2,0,0.3-0.1l20.2-14.9C127.6,975.6,127.6,975.3,127.5,975.1z"/>
	<path class="st1" d="M114.8,965.9c0-0.2-0.3-0.4-0.5-0.4l-11.4,1.9c-0.2,0-0.4,0.3-0.4,0.5s0.2,0.4,0.4,0.4c0,0,0,0,0.1,0l11.4-1.8
		C114.7,966.4,114.9,966.2,114.8,965.9z"/>
	<path class="st1" d="M117,956c0.2,0,0.3-0.1,0.4-0.3s0-0.5-0.3-0.5l-19.4-6.7c-0.2-0.1-0.5,0-0.5,0.3c-0.1,0.2,0,0.5,0.3,0.5
		L117,956C116.9,956,117,956,117,956z"/>
	<path class="st1" d="M124.5,950.1c0.1,0.1,0.2,0.1,0.3,0.1s0.2,0,0.3-0.1c0.2-0.2,0.1-0.5,0-0.6l-10.6-9.3c-0.2-0.2-0.4-0.1-0.6,0
		c-0.2,0.2-0.1,0.5,0,0.6L124.5,950.1z"/>
	<path class="st1" d="M130.3,945.9c0.1,0.1,0.2,0.1,0.3,0.1s0.2,0,0.3-0.1c0.2-0.2,0.2-0.4,0-0.6L115,926.8c-0.2-0.2-0.4-0.2-0.6,0
		s-0.2,0.4,0,0.6L130.3,945.9z"/>
	<path class="st1" d="M112.6,976l-5.2,2.4c-0.2,0.1-0.3,0.4-0.2,0.6c0.1,0.2,0.2,0.3,0.4,0.3c0.1,0,0.1,0,0.2,0l5.2-2.4
		c0.2-0.1,0.3-0.4,0.2-0.6C113.1,976,112.8,975.9,112.6,976z"/>
	<path class="st1" d="M117.6,974.1c0.1,0.2,0.2,0.3,0.4,0.3c0.1,0,0.1,0,0.2,0l3.3-1.5c0.2-0.1,0.3-0.3,0.2-0.6
		c-0.1-0.2-0.4-0.3-0.6-0.2l-3.3,1.5C117.6,973.6,117.5,973.9,117.6,974.1z"/>
	<path class="st1" d="M184.5,977.6l-3.8-1.8c-0.2-0.1-0.5,0-0.6,0.2s0,0.5,0.2,0.6l3.8,1.8c0.1,0,0.1,0,0.2,0c0.2,0,0.3-0.1,0.4-0.2
		C184.8,978,184.7,977.7,184.5,977.6z"/>
	<path class="st1" d="M174.3,972.8l-7.6-3.6c-0.2-0.1-0.5,0-0.6,0.2s0,0.5,0.2,0.6l7.6,3.6c0.1,0,0.1,0,0.2,0c0.2,0,0.3-0.1,0.4-0.2
		C174.6,973.1,174.5,972.9,174.3,972.8z"/>
	<path class="st1" d="M167.3,926.7c0.1,0,0.3,0,0.3-0.2l2.1-2.6c0.2-0.2,0.1-0.5-0.1-0.6c-0.2-0.2-0.5-0.1-0.6,0.1l-2.1,2.6
		c-0.1,0.2-0.1,0.5,0.1,0.6C167.2,926.7,167.3,926.7,167.3,926.7z"/>
	<path class="st1" d="M152.6,944.2c0.1,0.1,0.2,0.1,0.3,0.1s0.3,0,0.3-0.2l11.1-13.6c0.1-0.2,0.1-0.5-0.1-0.6s-0.4-0.1-0.6,0.1
		l-11.1,13.6C152.4,943.8,152.4,944.1,152.6,944.2z"/>
</g>
<g class="st0">
	<path class="st1" d="M709.2,359.5c0.2,0,0.4-0.2,0.4-0.4c0-0.2-0.2-0.4-0.4-0.4c-8-1.4-12.6-2.6-15.5-5.4
		c-2.9-2.9-4.1-7.5-5.5-15.5c0-0.2-0.2-0.4-0.4-0.4s-0.4,0.2-0.4,0.4c-1.4,8-2.6,12.6-5.4,15.5c-2.9,2.9-7.5,4.1-15.5,5.4
		c-0.2,0-0.4,0.2-0.4,0.4c0,0.2,0.1,0.4,0.3,0.4c15.5,2.9,18.2,4.6,20.9,20.9c0,0.2,0.2,0.4,0.4,0.4s0.4-0.2,0.4-0.4
		c1.4-8,2.6-12.6,5.5-15.5C696.6,362.1,701.2,360.8,709.2,359.5z M687.8,377.9c-2.6-13.8-5.9-16.2-18.9-18.8
		c13.6-2.5,16.4-5.3,18.9-18.9c2.5,13.5,5.3,16.3,18.8,18.8C693.1,361.6,690.3,364.4,687.8,377.9z"/>
	<path class="st1" d="M678.6,335.7c0.1,0.1,0.2,0.2,0.4,0.2c0.1,0,0.1,0,0.2-0.1c0.2-0.1,0.3-0.4,0.2-0.6l-2.4-4.6
		c-0.1-0.2-0.4-0.3-0.6-0.2s-0.3,0.4-0.2,0.6L678.6,335.7z"/>
	<path class="st1" d="M673.9,326.6c0.1,0.1,0.2,0.2,0.4,0.2c0.1,0,0.1,0,0.2-0.1c0.2-0.1,0.3-0.4,0.2-0.6l-2.1-4.1
		c-0.1-0.2-0.4-0.3-0.6-0.2s-0.3,0.4-0.2,0.6L673.9,326.6z"/>
	<path class="st1" d="M686.9,331.3c0.2,0,0.4-0.2,0.4-0.4v-23.7c0-0.2-0.2-0.4-0.4-0.4s-0.4,0.2-0.4,0.4v23.6
		C686.4,331.1,686.6,331.3,686.9,331.3z"/>
	<path class="st1" d="M694.3,336.5c0.1,0,0.1,0.1,0.2,0.1c0.2,0,0.3-0.1,0.4-0.2l7.1-12.8c0.1-0.2,0-0.5-0.2-0.6s-0.5,0-0.6,0.2
		l-7.1,12.8C694.1,336.1,694.1,336.4,694.3,336.5z"/>
	<path class="st1" d="M704.8,346.3c0.1,0.1,0.2,0.2,0.3,0.2s0.2,0,0.3-0.1l14.1-10.4c0.2-0.1,0.2-0.4,0.1-0.6s-0.4-0.2-0.6-0.1
		l-14.1,10.4C704.7,345.8,704.7,346.1,704.8,346.3z"/>
	<path class="st1" d="M711.1,353.7c0,0.2,0.2,0.3,0.4,0.3h0.1l17.8-3.7c0.2,0,0.4-0.3,0.3-0.5c-0.1-0.2-0.3-0.4-0.5-0.3l-17.8,3.7
		C711.2,353.2,711,353.5,711.1,353.7z"/>
	<path class="st1" d="M716.5,362.8c0,0.2,0.2,0.4,0.4,0.4l13.4,0.6l0,0c0.2,0,0.4-0.2,0.4-0.4c0-0.2-0.2-0.4-0.4-0.4l-13.4-0.6
		C716.7,362.4,716.5,362.6,716.5,362.8z"/>
	<path class="st1" d="M718.1,381.4l-12.7-9.5c-0.2-0.1-0.5-0.1-0.6,0.1s-0.1,0.5,0.1,0.6l12.7,9.5c0.1,0.1,0.2,0.1,0.3,0.1
		s0.3-0.1,0.3-0.2C718.4,381.8,718.3,381.5,718.1,381.4z"/>
	<path class="st1" d="M699.2,378c-0.2-0.2-0.4-0.2-0.6-0.1s-0.2,0.4-0.1,0.6l16.6,20c0.1,0.1,0.2,0.2,0.3,0.2s0.2,0,0.3-0.1
		c0.2-0.2,0.2-0.4,0.1-0.6L699.2,378z"/>
	<path class="st1" d="M694.3,383.9c-0.1-0.2-0.4-0.3-0.6-0.2c-0.2,0.1-0.3,0.4-0.2,0.6l5,8.8c0.1,0.1,0.2,0.2,0.4,0.2
		c0.1,0,0.1,0,0.2-0.1c0.2-0.1,0.3-0.4,0.2-0.6L694.3,383.9z"/>
	<path class="st1" d="M686.4,387.4c-0.2,0-0.4,0.2-0.4,0.4v18.5c0,0.2,0.2,0.4,0.4,0.4s0.4-0.2,0.4-0.4v-18.5
		C686.8,387.6,686.6,387.4,686.4,387.4z"/>
	<path class="st1" d="M680.4,381.1c-0.2-0.1-0.5-0.1-0.6,0.1l-12.4,18.1c-0.1,0.2-0.1,0.5,0.1,0.6c0.1,0.1,0.2,0.1,0.2,0.1
		c0.1,0,0.3-0.1,0.3-0.2l12.4-18C680.7,381.5,680.6,381.2,680.4,381.1z"/>
	<path class="st1" d="M673.5,373.1c-0.1-0.2-0.4-0.2-0.6-0.1l-20.2,14.9c-0.2,0.1-0.2,0.4-0.1,0.6c0.1,0.1,0.2,0.2,0.3,0.2
		s0.2,0,0.3-0.1l20.2-14.9C673.6,373.6,673.6,373.3,673.5,373.1z"/>
	<path class="st1" d="M660.8,363.9c0-0.2-0.3-0.4-0.5-0.3l-11.4,1.8c-0.2,0-0.4,0.3-0.3,0.5c0,0.2,0.2,0.4,0.4,0.4h0.1l11.4-1.9
		C660.7,364.4,660.9,364.2,660.8,363.9z"/>
	<path class="st1" d="M663,354c0.2,0,0.3-0.1,0.4-0.3c0.1-0.2,0-0.5-0.3-0.5l-19.4-6.7c-0.2-0.1-0.5,0-0.5,0.3
		c-0.1,0.2,0,0.5,0.3,0.5L663,354L663,354z"/>
	<path class="st1" d="M670.5,348.1c0.1,0.1,0.2,0.1,0.3,0.1s0.2-0.1,0.3-0.2c0.2-0.2,0.1-0.4,0-0.6l-10.6-9.3
		c-0.2-0.2-0.5-0.1-0.6,0c-0.2,0.2-0.1,0.5,0,0.6L670.5,348.1z"/>
	<path class="st1" d="M676.3,343.9c0.1,0.1,0.2,0.1,0.3,0.1s0.2,0,0.3-0.1c0.2-0.2,0.2-0.4,0-0.6L661,324.8c-0.2-0.2-0.4-0.2-0.6,0
		c-0.2,0.1-0.2,0.4,0,0.6L676.3,343.9z"/>
	<path class="st1" d="M658.6,374l-5.2,2.4c-0.2,0.1-0.3,0.3-0.2,0.6c0.1,0.2,0.2,0.3,0.4,0.3c0.1,0,0.1,0,0.2,0l5.2-2.4
		c0.2-0.1,0.3-0.4,0.2-0.6C659.1,374,658.8,373.9,658.6,374z"/>
	<path class="st1" d="M663.6,372.1c0.1,0.2,0.2,0.3,0.4,0.3c0.1,0,0.1,0,0.2,0l3.3-1.5c0.2-0.1,0.3-0.4,0.2-0.6s-0.3-0.3-0.6-0.2
		l-3.3,1.5C663.6,371.6,663.5,371.9,663.6,372.1z"/>
	<path class="st1" d="M730.5,375.6l-3.8-1.8c-0.2-0.1-0.5,0-0.6,0.2s0,0.5,0.2,0.6l3.8,1.8c0.1,0,0.1,0,0.2,0c0.2,0,0.3-0.1,0.4-0.2
		C730.8,376,730.7,375.7,730.5,375.6z"/>
	<path class="st1" d="M720.3,370.8l-7.6-3.6c-0.2-0.1-0.5,0-0.6,0.2s0,0.5,0.2,0.6l7.6,3.6c0.1,0,0.1,0,0.2,0c0.2,0,0.3-0.1,0.4-0.2
		C720.6,371.1,720.5,370.9,720.3,370.8z"/>
	<path class="st1" d="M713.3,324.7c0.1,0,0.3-0.1,0.3-0.2l2.1-2.6c0.2-0.2,0.1-0.4-0.1-0.6c-0.2-0.1-0.5-0.1-0.6,0.1l-2.1,2.6
		c-0.1,0.2-0.1,0.4,0.1,0.6C713.2,324.7,713.3,324.7,713.3,324.7z"/>
	<path class="st1" d="M698.6,342.2c0.1,0.1,0.2,0.1,0.3,0.1s0.3,0,0.3-0.2l11.1-13.6c0.1-0.2,0.1-0.4-0.1-0.6s-0.4-0.1-0.6,0.1
		l-11.1,13.6C698.4,341.8,698.4,342.1,698.6,342.2z"/>
</g>
</svg>
